# Wavefront OBJ exported by MilkShape 3D

v 0.000007 -0.000019 -0.091045
v -0.000007 0.000019 0.091045
v 0.039507 0.000307 -0.082026
v 0.035455 0.017414 -0.082030
v 0.024381 0.031068 -0.082033
v 0.008480 0.038566 -0.082036
v -0.009100 0.038421 -0.082037
v -0.024876 0.030664 -0.082037
v -0.035724 0.016829 -0.082035
v -0.039496 -0.000342 -0.082031
v -0.035443 -0.017449 -0.082027
v -0.024369 -0.031103 -0.082024
v -0.008468 -0.038601 -0.082021
v 0.009112 -0.038457 -0.082020
v 0.024888 -0.030699 -0.082020
v 0.035736 -0.016864 -0.082022
v 0.071183 0.000572 -0.056760
v 0.063881 0.031398 -0.056768
v 0.043927 0.056003 -0.056774
v 0.015273 0.069513 -0.056779
v -0.016405 0.069252 -0.056782
v -0.044832 0.055274 -0.056781
v -0.064380 0.030345 -0.056777
v -0.071175 -0.000597 -0.056771
v -0.063873 -0.031422 -0.056763
v -0.043918 -0.056027 -0.056757
v -0.015265 -0.069537 -0.056752
v 0.016413 -0.069277 -0.056750
v 0.044841 -0.055298 -0.056750
v 0.064388 -0.030369 -0.056754
v 0.088761 0.000725 -0.020253
v 0.079654 0.039164 -0.020262
v 0.054772 0.069845 -0.020270
v 0.019042 0.086692 -0.020277
v -0.020460 0.086367 -0.020279
v -0.055909 0.068936 -0.020278
v -0.080284 0.037850 -0.020273
v -0.088758 -0.000733 -0.020266
v -0.079651 -0.039172 -0.020257
v -0.054769 -0.069854 -0.020248
v -0.019039 -0.086700 -0.020242
v 0.020463 -0.086376 -0.020239
v 0.055912 -0.068945 -0.020241
v 0.080287 -0.037859 -0.020245
v 0.088758 0.000733 0.020266
v 0.079651 0.039172 0.020257
v 0.054769 0.069854 0.020248
v 0.019039 0.086700 0.020242
v -0.020463 0.086376 0.020239
v -0.055912 0.068945 0.020241
v -0.080287 0.037859 0.020245
v -0.088761 -0.000725 0.020253
v -0.079654 -0.039164 0.020262
v -0.054772 -0.069845 0.020270
v -0.019042 -0.086692 0.020277
v 0.020460 -0.086367 0.020279
v 0.055909 -0.068936 0.020278
v 0.080284 -0.037850 0.020273
v 0.071175 0.000597 0.056771
v 0.063873 0.031422 0.056763
v 0.043918 0.056027 0.056757
v 0.015265 0.069537 0.056752
v -0.016413 0.069277 0.056750
v -0.044841 0.055298 0.056750
v -0.064388 0.030369 0.056754
v -0.071183 -0.000572 0.056760
v -0.063881 -0.031398 0.056768
v -0.043927 -0.056003 0.056774
v -0.015273 -0.069513 0.056779
v 0.016405 -0.069252 0.056782
v 0.044832 -0.055274 0.056781
v 0.064380 -0.030345 0.056777
v 0.039496 0.000342 0.082031
v 0.035443 0.017449 0.082027
v 0.024369 0.031103 0.082024
v 0.008468 0.038601 0.082021
v -0.009112 0.038457 0.082020
v -0.024888 0.030699 0.082020
v -0.035736 0.016864 0.082022
v -0.039507 -0.000307 0.082026
v -0.035455 -0.017414 0.082030
v -0.024381 -0.031068 0.082033
v -0.008480 -0.038566 0.082036
v 0.009100 -0.038421 0.082037
v 0.024876 -0.030664 0.082037
v 0.035724 -0.016829 0.082035
vt 0.071429 0.285714
vt 1.000000 0.285714
vt 1.000000 0.142857
vt 0.071429 0.142857
vt 0.142857 0.285714
vt 0.142857 0.142857
vt 0.214286 0.285714
vt 0.214286 0.142857
vt 0.285714 0.285714
vt 0.285714 0.142857
vt 0.357143 0.285714
vt 0.357143 0.142857
vt 0.428571 0.285714
vt 0.428571 0.142857
vt 0.500000 0.285714
vt 0.500000 0.142857
vt 0.571429 0.285714
vt 0.571429 0.142857
vt 0.642857 0.285714
vt 0.642857 0.142857
vt 0.714286 0.285714
vt 0.714286 0.142857
vt 0.785714 0.285714
vt 0.785714 0.142857
vt 0.857143 0.285714
vt 0.857143 0.142857
vt 0.928571 0.285714
vt 0.928571 0.142857
vt 0.071429 0.428571
vt 1.000000 0.428571
vt 0.142857 0.428571
vt 0.214286 0.428571
vt 0.285714 0.428571
vt 0.357143 0.428571
vt 0.428571 0.428571
vt 0.500000 0.428571
vt 0.571429 0.428571
vt 0.642857 0.428571
vt 0.714286 0.428571
vt 0.785714 0.428571
vt 0.857143 0.428571
vt 0.928571 0.428571
vt 0.071429 0.571429
vt 1.000000 0.571429
vt 0.142857 0.571429
vt 0.214286 0.571429
vt 0.285714 0.571429
vt 0.357143 0.571429
vt 0.428571 0.571429
vt 0.500000 0.571429
vt 0.571429 0.571429
vt 0.642857 0.571429
vt 0.714286 0.571429
vt 0.785714 0.571429
vt 0.857143 0.571429
vt 0.928571 0.571429
vt 0.071429 0.714286
vt 1.000000 0.714286
vt 0.142857 0.714286
vt 0.214286 0.714286
vt 0.285714 0.714286
vt 0.357143 0.714286
vt 0.428571 0.714286
vt 0.500000 0.714286
vt 0.571429 0.714286
vt 0.642857 0.714286
vt 0.714286 0.714286
vt 0.785714 0.714286
vt 0.857143 0.714286
vt 0.928571 0.714286
vt 0.071429 0.857143
vt 1.000000 0.857143
vt 0.142857 0.857143
vt 0.214286 0.857143
vt 0.285714 0.857143
vt 0.357143 0.857143
vt 0.428571 0.857143
vt 0.500000 0.857143
vt 0.571429 0.857143
vt 0.642857 0.857143
vt 0.714286 0.857143
vt 0.785714 0.857143
vt 0.857143 0.857143
vt 0.928571 0.857143
vt 0.928571 0.000000
vt 0.928571 1.000000
vn 0.696283 0.353939 -0.624433
vn 0.780960 0.016788 -0.624355
vn 0.473285 0.032749 -0.880300
vn 0.412131 0.234810 -0.880348
vn 0.473708 0.620961 -0.624507
vn 0.269361 0.390327 -0.880392
vn 0.157317 0.764967 -0.624561
vn 0.073254 0.468498 -0.880423
vn -0.190222 0.757436 -0.624584
vn -0.137349 0.453839 -0.880435
vn -0.500077 0.599859 -0.624573
vn -0.320736 0.349255 -0.880426
vn -0.710877 0.323446 -0.624529
vn -0.440585 0.175459 -0.880397
vn -0.780870 -0.017056 -0.624461
vn -0.473158 -0.033126 -0.880355
vn -0.696193 -0.354206 -0.624383
vn -0.412003 -0.235187 -0.880307
vn -0.473617 -0.621228 -0.624310
vn -0.269234 -0.390704 -0.880263
vn -0.157227 -0.765235 -0.624256
vn -0.073126 -0.468874 -0.880233
vn 0.190313 -0.757704 -0.624232
vn 0.137477 -0.454216 -0.880220
vn 0.500168 -0.600127 -0.624243
vn 0.320864 -0.349632 -0.880229
vn 0.710968 -0.323714 -0.624287
vn 0.440713 -0.175836 -0.880258
vn 0.873151 0.433413 -0.223070
vn 0.974755 0.011648 -0.222972
vn 0.598612 0.769326 -0.223162
vn 0.205514 0.952855 -0.223230
vn -0.228286 0.947650 -0.223260
vn -0.616868 0.754742 -0.223247
vn -0.883268 0.412338 -0.223193
vn -0.974723 -0.011743 -0.223109
vn -0.873119 -0.433508 -0.223011
vn -0.598580 -0.769421 -0.222919
vn -0.205482 -0.952950 -0.222851
vn 0.228318 -0.947746 -0.222821
vn 0.616900 -0.754837 -0.222834
vn 0.883300 -0.412434 -0.222888
vn 0.876376 0.426885 0.223013
vn 0.974783 0.004363 0.223110
vn 0.604388 0.764867 0.222921
vn 0.212691 0.951367 0.222852
vn -0.221136 0.949447 0.222821
vn -0.611167 0.759486 0.222833
vn -0.880153 0.419110 0.222887
vn -0.974816 -0.004267 0.222971
vn -0.876408 -0.426789 0.223068
vn -0.604420 -0.764771 0.223160
vn -0.212723 -0.951272 0.223229
vn 0.221104 -0.949351 0.223260
vn 0.611135 -0.759391 0.223247
vn 0.880120 -0.419014 0.223194
vn 0.705467 0.335346 0.624388
vn 0.781042 -0.003961 0.624466
vn 0.490156 0.608260 0.624314
vn 0.177755 0.760726 0.624258
vn -0.169862 0.762549 0.624233
vn -0.483844 0.613365 0.624242
vn -0.702004 0.342724 0.624284
vn -0.781133 0.004228 0.624351
vn -0.705557 -0.335079 0.624429
vn -0.490246 -0.607992 0.624503
vn -0.177845 -0.760459 0.624558
vn 0.169771 -0.762281 0.624584
vn 0.483754 -0.613098 0.624575
vn 0.701914 -0.342456 0.624532
vn 0.437641 0.183049 0.880320
vn 0.473635 -0.024972 0.880367
vn 0.314954 0.354853 0.880274
vn 0.129874 0.456412 0.880239
vn -0.080942 0.467609 0.880222
vn -0.275739 0.386228 0.880225
vn -0.415935 0.228388 0.880248
vn -0.473762 0.025349 0.880288
vn -0.437768 -0.182672 0.880335
vn -0.315082 -0.354476 0.880381
vn -0.130002 -0.456035 0.880416
vn 0.080814 -0.467232 0.880433
vn 0.275611 -0.385851 0.880430
vn 0.415807 -0.228011 0.880407
vn 0.000073 -0.000214 -1.000000
vn -0.000073 0.000214 1.000000
f 18/1/1 17/2/2 3/3/3
f 4/4/4 18/1/1 3/3/3
f 19/5/5 18/1/1 4/4/4
f 5/6/6 19/5/5 4/4/4
f 20/7/7 19/5/5 5/6/6
f 6/8/8 20/7/7 5/6/6
f 21/9/9 20/7/7 6/8/8
f 7/10/10 21/9/9 6/8/8
f 22/11/11 21/9/9 7/10/10
f 8/12/12 22/11/11 7/10/10
f 23/13/13 22/11/11 8/12/12
f 9/14/14 23/13/13 8/12/12
f 24/15/15 23/13/13 9/14/14
f 10/16/16 24/15/15 9/14/14
f 25/17/17 24/15/15 10/16/16
f 11/18/18 25/17/17 10/16/16
f 26/19/19 25/17/17 11/18/18
f 12/20/20 26/19/19 11/18/18
f 27/21/21 26/19/19 12/20/20
f 13/22/22 27/21/21 12/20/20
f 28/23/23 27/21/21 13/22/22
f 14/24/24 28/23/23 13/22/22
f 29/25/25 28/23/23 14/24/24
f 15/26/26 29/25/25 14/24/24
f 30/27/27 29/25/25 15/26/26
f 16/28/28 30/27/27 15/26/26
f 17/2/2 30/27/27 16/28/28
f 3/3/3 17/2/2 16/28/28
f 32/29/29 31/30/30 17/2/2
f 18/1/1 32/29/29 17/2/2
f 33/31/31 32/29/29 18/1/1
f 19/5/5 33/31/31 18/1/1
f 34/32/32 33/31/31 19/5/5
f 20/7/7 34/32/32 19/5/5
f 35/33/33 34/32/32 20/7/7
f 21/9/9 35/33/33 20/7/7
f 36/34/34 35/33/33 21/9/9
f 22/11/11 36/34/34 21/9/9
f 37/35/35 36/34/34 22/11/11
f 23/13/13 37/35/35 22/11/11
f 38/36/36 37/35/35 23/13/13
f 24/15/15 38/36/36 23/13/13
f 39/37/37 38/36/36 24/15/15
f 25/17/17 39/37/37 24/15/15
f 40/38/38 39/37/37 25/17/17
f 26/19/19 40/38/38 25/17/17
f 41/39/39 40/38/38 26/19/19
f 27/21/21 41/39/39 26/19/19
f 42/40/40 41/39/39 27/21/21
f 28/23/23 42/40/40 27/21/21
f 43/41/41 42/40/40 28/23/23
f 29/25/25 43/41/41 28/23/23
f 44/42/42 43/41/41 29/25/25
f 30/27/27 44/42/42 29/25/25
f 31/30/30 44/42/42 30/27/27
f 17/2/2 31/30/30 30/27/27
f 46/43/43 45/44/44 31/30/30
f 32/29/29 46/43/43 31/30/30
f 47/45/45 46/43/43 32/29/29
f 33/31/31 47/45/45 32/29/29
f 48/46/46 47/45/45 33/31/31
f 34/32/32 48/46/46 33/31/31
f 49/47/47 48/46/46 34/32/32
f 35/33/33 49/47/47 34/32/32
f 50/48/48 49/47/47 35/33/33
f 36/34/34 50/48/48 35/33/33
f 51/49/49 50/48/48 36/34/34
f 37/35/35 51/49/49 36/34/34
f 52/50/50 51/49/49 37/35/35
f 38/36/36 52/50/50 37/35/35
f 53/51/51 52/50/50 38/36/36
f 39/37/37 53/51/51 38/36/36
f 54/52/52 53/51/51 39/37/37
f 40/38/38 54/52/52 39/37/37
f 55/53/53 54/52/52 40/38/38
f 41/39/39 55/53/53 40/38/38
f 56/54/54 55/53/53 41/39/39
f 42/40/40 56/54/54 41/39/39
f 57/55/55 56/54/54 42/40/40
f 43/41/41 57/55/55 42/40/40
f 58/56/56 57/55/55 43/41/41
f 44/42/42 58/56/56 43/41/41
f 45/44/44 58/56/56 44/42/42
f 31/30/30 45/44/44 44/42/42
f 60/57/57 59/58/58 45/44/44
f 46/43/43 60/57/57 45/44/44
f 61/59/59 60/57/57 46/43/43
f 47/45/45 61/59/59 46/43/43
f 62/60/60 61/59/59 47/45/45
f 48/46/46 62/60/60 47/45/45
f 63/61/61 62/60/60 48/46/46
f 49/47/47 63/61/61 48/46/46
f 64/62/62 63/61/61 49/47/47
f 50/48/48 64/62/62 49/47/47
f 65/63/63 64/62/62 50/48/48
f 51/49/49 65/63/63 50/48/48
f 66/64/64 65/63/63 51/49/49
f 52/50/50 66/64/64 51/49/49
f 67/65/65 66/64/64 52/50/50
f 53/51/51 67/65/65 52/50/50
f 68/66/66 67/65/65 53/51/51
f 54/52/52 68/66/66 53/51/51
f 69/67/67 68/66/66 54/52/52
f 55/53/53 69/67/67 54/52/52
f 70/68/68 69/67/67 55/53/53
f 56/54/54 70/68/68 55/53/53
f 71/69/69 70/68/68 56/54/54
f 57/55/55 71/69/69 56/54/54
f 72/70/70 71/69/69 57/55/55
f 58/56/56 72/70/70 57/55/55
f 59/58/58 72/70/70 58/56/56
f 45/44/44 59/58/58 58/56/56
f 74/71/71 73/72/72 59/58/58
f 60/57/57 74/71/71 59/58/58
f 75/73/73 74/71/71 60/57/57
f 61/59/59 75/73/73 60/57/57
f 76/74/74 75/73/73 61/59/59
f 62/60/60 76/74/74 61/59/59
f 77/75/75 76/74/74 62/60/60
f 63/61/61 77/75/75 62/60/60
f 78/76/76 77/75/75 63/61/61
f 64/62/62 78/76/76 63/61/61
f 79/77/77 78/76/76 64/62/62
f 65/63/63 79/77/77 64/62/62
f 80/78/78 79/77/77 65/63/63
f 66/64/64 80/78/78 65/63/63
f 81/79/79 80/78/78 66/64/64
f 67/65/65 81/79/79 66/64/64
f 82/80/80 81/79/79 67/65/65
f 68/66/66 82/80/80 67/65/65
f 83/81/81 82/80/80 68/66/66
f 69/67/67 83/81/81 68/66/66
f 84/82/82 83/81/81 69/67/67
f 70/68/68 84/82/82 69/67/67
f 85/83/83 84/82/82 70/68/68
f 71/69/69 85/83/83 70/68/68
f 86/84/84 85/83/83 71/69/69
f 72/70/70 86/84/84 71/69/69
f 73/72/72 86/84/84 72/70/70
f 59/58/58 73/72/72 72/70/70
f 4/4/4 3/3/3 1/85/85
f 2/86/86 73/72/72 74/71/71
f 5/6/6 4/4/4 1/85/85
f 2/86/86 74/71/71 75/73/73
f 6/8/8 5/6/6 1/85/85
f 2/86/86 75/73/73 76/74/74
f 7/10/10 6/8/8 1/85/85
f 2/86/86 76/74/74 77/75/75
f 8/12/12 7/10/10 1/85/85
f 2/86/86 77/75/75 78/76/76
f 9/14/14 8/12/12 1/85/85
f 2/86/86 78/76/76 79/77/77
f 10/16/16 9/14/14 1/85/85
f 2/86/86 79/77/77 80/78/78
f 11/18/18 10/16/16 1/85/85
f 2/86/86 80/78/78 81/79/79
f 12/20/20 11/18/18 1/85/85
f 2/86/86 81/79/79 82/80/80
f 13/22/22 12/20/20 1/85/85
f 2/86/86 82/80/80 83/81/81
f 14/24/24 13/22/22 1/85/85
f 2/86/86 83/81/81 84/82/82
f 15/26/26 14/24/24 1/85/85
f 2/86/86 84/82/82 85/83/83
f 16/28/28 15/26/26 1/85/85
f 2/86/86 85/83/83 86/84/84
f 3/3/3 16/28/28 1/85/85
f 2/86/86 86/84/84 73/72/72

