# Wavefront OBJ exported by MilkShape 3D

v -0.036418 0.000000 0.000000
v -0.418806 0.000000 0.000000
v -0.046403 0.000000 0.044426
v -0.076581 0.000000 0.079695
v -0.154761 0.000000 0.112399
v -0.227612 0.000000 0.120179
v -0.356127 0.000000 0.093546
v -0.400616 0.000000 0.057786
v -0.413053 0.000000 0.034558
v -0.046403 0.009638 0.040026
v -0.076581 0.017289 0.071803
v -0.154761 0.024384 0.101268
v -0.227612 0.026072 0.108278
v -0.356127 0.020294 0.084282
v -0.400616 0.012536 0.052063
v -0.413053 0.007497 0.031135
v -0.046403 0.017367 0.027699
v -0.076581 0.031154 0.049689
v -0.154761 0.043939 0.070080
v -0.227612 0.046980 0.074930
v -0.356127 0.036569 0.058325
v -0.400616 0.022589 0.036029
v -0.413053 0.013509 0.021546
v -0.046403 0.021656 0.009886
v -0.076581 0.038849 0.017734
v -0.154761 0.054791 0.025011
v -0.227612 0.058583 0.026742
v -0.356127 0.045600 0.020816
v -0.400616 0.028169 0.012859
v -0.413053 0.016846 0.007690
v -0.046403 0.021656 -0.009886
v -0.076581 0.038849 -0.017734
v -0.154761 0.054791 -0.025011
v -0.227612 0.058583 -0.026742
v -0.356127 0.045600 -0.020816
v -0.400616 0.028169 -0.012859
v -0.413053 0.016846 -0.007690
v -0.046403 0.017367 -0.027699
v -0.076581 0.031154 -0.049689
v -0.154761 0.043939 -0.070080
v -0.227612 0.046980 -0.074930
v -0.356127 0.036569 -0.058325
v -0.400616 0.022589 -0.036029
v -0.413053 0.013509 -0.021546
v -0.046403 0.009638 -0.040026
v -0.076581 0.017289 -0.071803
v -0.154761 0.024384 -0.101268
v -0.227612 0.026072 -0.108278
v -0.356127 0.020294 -0.084282
v -0.400616 0.012536 -0.052063
v -0.413053 0.007497 -0.031135
v -0.046403 -0.000000 -0.044426
v -0.076581 -0.000000 -0.079695
v -0.154761 -0.000000 -0.112399
v -0.227612 -0.000000 -0.120179
v -0.356127 -0.000000 -0.093546
v -0.400616 -0.000000 -0.057786
v -0.413053 -0.000000 -0.034558
v -0.046403 -0.009638 -0.040026
v -0.076581 -0.017289 -0.071803
v -0.154761 -0.024384 -0.101268
v -0.227612 -0.026072 -0.108278
v -0.356127 -0.020294 -0.084282
v -0.400616 -0.012536 -0.052063
v -0.413053 -0.007497 -0.031135
v -0.046403 -0.017367 -0.027699
v -0.076581 -0.031154 -0.049689
v -0.154761 -0.043939 -0.070080
v -0.227612 -0.046980 -0.074930
v -0.356127 -0.036569 -0.058325
v -0.400616 -0.022589 -0.036029
v -0.413053 -0.013509 -0.021546
v -0.046403 -0.021656 -0.009886
v -0.076581 -0.038849 -0.017734
v -0.154761 -0.054791 -0.025011
v -0.227612 -0.058583 -0.026742
v -0.356127 -0.045600 -0.020816
v -0.400616 -0.028169 -0.012859
v -0.413053 -0.016846 -0.007690
v -0.046403 -0.021656 0.009886
v -0.076581 -0.038849 0.017734
v -0.154761 -0.054791 0.025011
v -0.227612 -0.058583 0.026742
v -0.356127 -0.045600 0.020816
v -0.400616 -0.028169 0.012859
v -0.413053 -0.016846 0.007690
v -0.046403 -0.017367 0.027699
v -0.076581 -0.031154 0.049689
v -0.154761 -0.043939 0.070080
v -0.227612 -0.046980 0.074931
v -0.356127 -0.036569 0.058325
v -0.400616 -0.022589 0.036029
v -0.413053 -0.013509 0.021546
v -0.046403 -0.009638 0.040026
v -0.076581 -0.017289 0.071803
v -0.154761 -0.024384 0.101268
v -0.227612 -0.026072 0.108278
v -0.356127 -0.020294 0.084282
v -0.400616 -0.012536 0.052063
v -0.413053 -0.007497 0.031135
vt 0.071429 0.091129
vt 1.000000 0.091129
vt 0.964286 0.000000
vt 0.071429 0.184026
vt 1.000000 0.184026
vt 0.071429 0.353628
vt 1.000000 0.353628
vt 0.071429 0.500256
vt 1.000000 0.500256
vt 0.071429 0.762921
vt 1.000000 0.762921
vt 0.071429 0.877155
vt 1.000000 0.877155
vt 0.071429 0.929887
vt 1.000000 0.929887
vt 0.964286 1.000000
vt 0.142857 0.091129
vt 0.142857 0.184026
vt 0.142857 0.353628
vt 0.142857 0.500256
vt 0.142857 0.762921
vt 0.142857 0.877155
vt 0.142857 0.929887
vt 0.214286 0.091129
vt 0.214286 0.184026
vt 0.214286 0.353628
vt 0.214286 0.500256
vt 0.214286 0.762921
vt 0.214286 0.877155
vt 0.214286 0.929887
vt 0.285714 0.091129
vt 0.285714 0.184026
vt 0.285714 0.353628
vt 0.285714 0.500256
vt 0.285714 0.762921
vt 0.285714 0.877155
vt 0.285714 0.929887
vt 0.357143 0.091129
vt 0.357143 0.184026
vt 0.357143 0.353628
vt 0.357143 0.500256
vt 0.357143 0.762921
vt 0.357143 0.877155
vt 0.357143 0.929887
vt 0.428571 0.091129
vt 0.428571 0.184026
vt 0.428571 0.353628
vt 0.428571 0.500256
vt 0.428571 0.762921
vt 0.428571 0.877155
vt 0.428571 0.929887
vt 0.500000 0.091129
vt 0.500000 0.184026
vt 0.500000 0.353628
vt 0.500000 0.500256
vt 0.500000 0.762921
vt 0.500000 0.877155
vt 0.500000 0.929887
vt 0.571429 0.091129
vt 0.571429 0.184026
vt 0.571429 0.353628
vt 0.571429 0.500256
vt 0.571429 0.762921
vt 0.571429 0.877155
vt 0.571429 0.929887
vt 0.642857 0.091129
vt 0.642857 0.184026
vt 0.642857 0.353628
vt 0.642857 0.500256
vt 0.642857 0.762921
vt 0.642857 0.877155
vt 0.642857 0.929887
vt 0.714286 0.091129
vt 0.714286 0.184026
vt 0.714286 0.353628
vt 0.714286 0.500256
vt 0.714286 0.762921
vt 0.714286 0.877155
vt 0.714286 0.929887
vt 0.785714 0.091129
vt 0.785714 0.184026
vt 0.785714 0.353628
vt 0.785714 0.500256
vt 0.785714 0.762921
vt 0.785714 0.877155
vt 0.785714 0.929887
vt 0.857143 0.091129
vt 0.857143 0.184026
vt 0.857143 0.353628
vt 0.857143 0.500256
vt 0.857143 0.762921
vt 0.857143 0.877155
vt 0.857143 0.929887
vt 0.928571 0.091129
vt 0.928571 0.184026
vt 0.928571 0.353628
vt 0.928571 0.500256
vt 0.928571 0.762921
vt 0.928571 0.877155
vt 0.928571 0.929887
vn 0.817858 0.421813 0.391384
vn 0.871369 0.060073 0.486937
vn 1.000000 0.000000 0.000000
vn 0.523706 0.577040 0.626704
vn 0.592511 0.018875 0.805341
vn 0.213024 0.647441 0.731739
vn 0.249504 0.004634 0.968363
vn -0.033885 0.658846 0.751514
vn -0.049161 -0.000970 0.998790
vn -0.358960 0.614462 0.702556
vn -0.429959 -0.013466 0.902748
vn -0.705849 0.467504 0.532181
vn -0.771752 -0.022069 0.635541
vn -0.913654 0.253323 0.317907
vn -0.935144 -0.043267 0.351617
vn -1.000000 -0.000000 0.000000
vn 0.743580 0.628546 0.228076
vn 0.420145 0.839239 0.345189
vn 0.158039 0.910708 0.381621
vn -0.026376 0.921467 0.387561
vn -0.278164 0.885101 0.373124
vn -0.599870 0.737018 0.311386
vn -0.859591 0.464534 0.212866
vn 0.703112 0.708430 0.061318
vn 0.366796 0.924161 0.106706
vn 0.132934 0.984275 0.116323
vn -0.024451 0.992726 0.117883
vn -0.243296 0.963067 0.115363
vn -0.543287 0.833346 0.101856
vn -0.820144 0.566033 0.083495
vn 0.707953 0.698692 -0.103108
vn 0.364003 0.924697 -0.111524
vn 0.131050 0.984429 -0.117152
vn -0.026465 0.992694 -0.117719
vn -0.246332 0.962628 -0.112557
vn -0.544882 0.833254 -0.093765
vn -0.815697 0.576390 -0.049110
vn 0.758214 0.592031 -0.273151
vn 0.411922 0.839538 -0.354254
vn 0.151500 0.911064 -0.383420
vn -0.033524 0.921387 -0.387198
vn -0.288087 0.884329 -0.367380
vn -0.603202 0.739591 -0.298585
vn -0.847398 0.499770 -0.179298
vn 0.836519 0.337983 -0.431280
vn 0.514528 0.564737 -0.645239
vn 0.201647 0.645461 -0.736694
vn -0.047121 0.659228 -0.750465
vn -0.373687 0.621428 -0.688611
vn -0.706230 0.487836 -0.513083
vn -0.900624 0.320860 -0.293129
vn 0.871369 -0.060073 -0.486937
vn 0.592511 -0.018875 -0.805341
vn 0.249504 -0.004634 -0.968363
vn -0.049161 0.000970 -0.998790
vn -0.429959 0.013466 -0.902748
vn -0.771752 0.022069 -0.635541
vn -0.935144 0.043267 -0.351617
vn 0.817858 -0.421813 -0.391383
vn 0.523706 -0.577040 -0.626704
vn 0.213024 -0.647441 -0.731738
vn -0.033885 -0.658846 -0.751514
vn -0.358960 -0.614462 -0.702556
vn -0.705849 -0.467504 -0.532181
vn -0.913654 -0.253323 -0.317907
vn 0.743580 -0.628546 -0.228076
vn 0.420145 -0.839239 -0.345189
vn 0.158039 -0.910708 -0.381621
vn -0.026376 -0.921467 -0.387561
vn -0.278164 -0.885101 -0.373124
vn -0.599870 -0.737018 -0.311386
vn -0.859591 -0.464534 -0.212866
vn 0.703112 -0.708430 -0.061318
vn 0.366796 -0.924161 -0.106705
vn 0.132934 -0.984275 -0.116323
vn -0.024451 -0.992726 -0.117883
vn -0.243296 -0.963067 -0.115363
vn -0.543287 -0.833345 -0.101856
vn -0.820144 -0.566033 -0.083495
vn 0.707953 -0.698692 0.103108
vn 0.364003 -0.924697 0.111524
vn 0.131050 -0.984429 0.117152
vn -0.026465 -0.992694 0.117719
vn -0.246332 -0.962628 0.112557
vn -0.544882 -0.833254 0.093765
vn -0.815697 -0.576390 0.049110
vn 0.758214 -0.592031 0.273151
vn 0.411922 -0.839538 0.354254
vn 0.151500 -0.911064 0.383420
vn -0.033524 -0.921387 0.387198
vn -0.288087 -0.884329 0.367380
vn -0.603202 -0.739591 0.298585
vn -0.847398 -0.499769 0.179298
vn 0.836519 -0.337983 0.431280
vn 0.514528 -0.564737 0.645239
vn 0.201647 -0.645461 0.736694
vn -0.047121 -0.659228 0.750465
vn -0.373687 -0.621428 0.688611
vn -0.706230 -0.487836 0.513083
vn -0.900624 -0.320860 0.293129
f 10/1/1 3/2/2 1/3/3
f 11/4/4 4/5/5 3/2/2
f 10/1/1 11/4/4 3/2/2
f 12/6/6 5/7/7 4/5/5
f 11/4/4 12/6/6 4/5/5
f 13/8/8 6/9/9 5/7/7
f 12/6/6 13/8/8 5/7/7
f 14/10/10 7/11/11 6/9/9
f 13/8/8 14/10/10 6/9/9
f 15/12/12 8/13/13 7/11/11
f 14/10/10 15/12/12 7/11/11
f 16/14/14 9/15/15 8/13/13
f 15/12/12 16/14/14 8/13/13
f 16/14/14 2/16/16 9/15/15
f 17/17/17 10/1/1 1/3/3
f 18/18/18 11/4/4 10/1/1
f 17/17/17 18/18/18 10/1/1
f 19/19/19 12/6/6 11/4/4
f 18/18/18 19/19/19 11/4/4
f 20/20/20 13/8/8 12/6/6
f 19/19/19 20/20/20 12/6/6
f 21/21/21 14/10/10 13/8/8
f 20/20/20 21/21/21 13/8/8
f 22/22/22 15/12/12 14/10/10
f 21/21/21 22/22/22 14/10/10
f 23/23/23 16/14/14 15/12/12
f 22/22/22 23/23/23 15/12/12
f 23/23/23 2/16/16 16/14/14
f 24/24/24 17/17/17 1/3/3
f 25/25/25 18/18/18 17/17/17
f 24/24/24 25/25/25 17/17/17
f 26/26/26 19/19/19 18/18/18
f 25/25/25 26/26/26 18/18/18
f 27/27/27 20/20/20 19/19/19
f 26/26/26 27/27/27 19/19/19
f 28/28/28 21/21/21 20/20/20
f 27/27/27 28/28/28 20/20/20
f 29/29/29 22/22/22 21/21/21
f 28/28/28 29/29/29 21/21/21
f 30/30/30 23/23/23 22/22/22
f 29/29/29 30/30/30 22/22/22
f 30/30/30 2/16/16 23/23/23
f 31/31/31 24/24/24 1/3/3
f 32/32/32 25/25/25 24/24/24
f 31/31/31 32/32/32 24/24/24
f 33/33/33 26/26/26 25/25/25
f 32/32/32 33/33/33 25/25/25
f 34/34/34 27/27/27 26/26/26
f 33/33/33 34/34/34 26/26/26
f 35/35/35 28/28/28 27/27/27
f 34/34/34 35/35/35 27/27/27
f 36/36/36 29/29/29 28/28/28
f 35/35/35 36/36/36 28/28/28
f 37/37/37 30/30/30 29/29/29
f 36/36/36 37/37/37 29/29/29
f 37/37/37 2/16/16 30/30/30
f 38/38/38 31/31/31 1/3/3
f 39/39/39 32/32/32 31/31/31
f 38/38/38 39/39/39 31/31/31
f 40/40/40 33/33/33 32/32/32
f 39/39/39 40/40/40 32/32/32
f 41/41/41 34/34/34 33/33/33
f 40/40/40 41/41/41 33/33/33
f 42/42/42 35/35/35 34/34/34
f 41/41/41 42/42/42 34/34/34
f 43/43/43 36/36/36 35/35/35
f 42/42/42 43/43/43 35/35/35
f 44/44/44 37/37/37 36/36/36
f 43/43/43 44/44/44 36/36/36
f 44/44/44 2/16/16 37/37/37
f 45/45/45 38/38/38 1/3/3
f 46/46/46 39/39/39 38/38/38
f 45/45/45 46/46/46 38/38/38
f 47/47/47 40/40/40 39/39/39
f 46/46/46 47/47/47 39/39/39
f 48/48/48 41/41/41 40/40/40
f 47/47/47 48/48/48 40/40/40
f 49/49/49 42/42/42 41/41/41
f 48/48/48 49/49/49 41/41/41
f 50/50/50 43/43/43 42/42/42
f 49/49/49 50/50/50 42/42/42
f 51/51/51 44/44/44 43/43/43
f 50/50/50 51/51/51 43/43/43
f 51/51/51 2/16/16 44/44/44
f 52/52/52 45/45/45 1/3/3
f 53/53/53 46/46/46 45/45/45
f 52/52/52 53/53/53 45/45/45
f 54/54/54 47/47/47 46/46/46
f 53/53/53 54/54/54 46/46/46
f 55/55/55 48/48/48 47/47/47
f 54/54/54 55/55/55 47/47/47
f 56/56/56 49/49/49 48/48/48
f 55/55/55 56/56/56 48/48/48
f 57/57/57 50/50/50 49/49/49
f 56/56/56 57/57/57 49/49/49
f 58/58/58 51/51/51 50/50/50
f 57/57/57 58/58/58 50/50/50
f 58/58/58 2/16/16 51/51/51
f 59/59/59 52/52/52 1/3/3
f 60/60/60 53/53/53 52/52/52
f 59/59/59 60/60/60 52/52/52
f 61/61/61 54/54/54 53/53/53
f 60/60/60 61/61/61 53/53/53
f 62/62/62 55/55/55 54/54/54
f 61/61/61 62/62/62 54/54/54
f 63/63/63 56/56/56 55/55/55
f 62/62/62 63/63/63 55/55/55
f 64/64/64 57/57/57 56/56/56
f 63/63/63 64/64/64 56/56/56
f 65/65/65 58/58/58 57/57/57
f 64/64/64 65/65/65 57/57/57
f 65/65/65 2/16/16 58/58/58
f 66/66/66 59/59/59 1/3/3
f 67/67/67 60/60/60 59/59/59
f 66/66/66 67/67/67 59/59/59
f 68/68/68 61/61/61 60/60/60
f 67/67/67 68/68/68 60/60/60
f 69/69/69 62/62/62 61/61/61
f 68/68/68 69/69/69 61/61/61
f 70/70/70 63/63/63 62/62/62
f 69/69/69 70/70/70 62/62/62
f 71/71/71 64/64/64 63/63/63
f 70/70/70 71/71/71 63/63/63
f 72/72/72 65/65/65 64/64/64
f 71/71/71 72/72/72 64/64/64
f 72/72/72 2/16/16 65/65/65
f 73/73/73 66/66/66 1/3/3
f 74/74/74 67/67/67 66/66/66
f 73/73/73 74/74/74 66/66/66
f 75/75/75 68/68/68 67/67/67
f 74/74/74 75/75/75 67/67/67
f 76/76/76 69/69/69 68/68/68
f 75/75/75 76/76/76 68/68/68
f 77/77/77 70/70/70 69/69/69
f 76/76/76 77/77/77 69/69/69
f 78/78/78 71/71/71 70/70/70
f 77/77/77 78/78/78 70/70/70
f 79/79/79 72/72/72 71/71/71
f 78/78/78 79/79/79 71/71/71
f 79/79/79 2/16/16 72/72/72
f 80/80/80 73/73/73 1/3/3
f 81/81/81 74/74/74 73/73/73
f 80/80/80 81/81/81 73/73/73
f 82/82/82 75/75/75 74/74/74
f 81/81/81 82/82/82 74/74/74
f 83/83/83 76/76/76 75/75/75
f 82/82/82 83/83/83 75/75/75
f 84/84/84 77/77/77 76/76/76
f 83/83/83 84/84/84 76/76/76
f 85/85/85 78/78/78 77/77/77
f 84/84/84 85/85/85 77/77/77
f 86/86/86 79/79/79 78/78/78
f 85/85/85 86/86/86 78/78/78
f 86/86/86 2/16/16 79/79/79
f 87/87/87 80/80/80 1/3/3
f 88/88/88 81/81/81 80/80/80
f 87/87/87 88/88/88 80/80/80
f 89/89/89 82/82/82 81/81/81
f 88/88/88 89/89/89 81/81/81
f 90/90/90 83/83/83 82/82/82
f 89/89/89 90/90/90 82/82/82
f 91/91/91 84/84/84 83/83/83
f 90/90/90 91/91/91 83/83/83
f 92/92/92 85/85/85 84/84/84
f 91/91/91 92/92/92 84/84/84
f 93/93/93 86/86/86 85/85/85
f 92/92/92 93/93/93 85/85/85
f 93/93/93 2/16/16 86/86/86
f 94/94/94 87/87/87 1/3/3
f 95/95/95 88/88/88 87/87/87
f 94/94/94 95/95/95 87/87/87
f 96/96/96 89/89/89 88/88/88
f 95/95/95 96/96/96 88/88/88
f 97/97/97 90/90/90 89/89/89
f 96/96/96 97/97/97 89/89/89
f 98/98/98 91/91/91 90/90/90
f 97/97/97 98/98/98 90/90/90
f 99/99/99 92/92/92 91/91/91
f 98/98/98 99/99/99 91/91/91
f 100/100/100 93/93/93 92/92/92
f 99/99/99 100/100/100 92/92/92
f 100/100/100 2/16/16 93/93/93
f 3/2/2 94/94/94 1/3/3
f 4/5/5 95/95/95 94/94/94
f 3/2/2 4/5/5 94/94/94
f 5/7/7 96/96/96 95/95/95
f 4/5/5 5/7/7 95/95/95
f 6/9/9 97/97/97 96/96/96
f 5/7/7 6/9/9 96/96/96
f 7/11/11 98/98/98 97/97/97
f 6/9/9 7/11/11 97/97/97
f 8/13/13 99/99/99 98/98/98
f 7/11/11 8/13/13 98/98/98
f 9/15/15 100/100/100 99/99/99
f 8/13/13 9/15/15 99/99/99
f 9/15/15 2/16/16 100/100/100
