# Wavefront OBJ exported by MilkShape 3D

v 0.000000 0.000000 -0.091045
v 0.000000 0.000000 0.091045
v 0.039503 0.000000 -0.082029
v 0.035591 0.017140 -0.082029
v 0.024630 0.030885 -0.082029
v 0.008790 0.038512 -0.082029
v -0.008790 0.038512 -0.082029
v -0.024630 0.030885 -0.082029
v -0.035591 0.017140 -0.082029
v -0.039503 0.000000 -0.082029
v -0.035591 -0.017140 -0.082029
v -0.024630 -0.030885 -0.082029
v -0.008790 -0.038512 -0.082029
v 0.008790 -0.038512 -0.082029
v 0.024630 -0.030885 -0.082029
v 0.035591 -0.017140 -0.082029
v 0.071182 0.000000 -0.056766
v 0.064133 0.030885 -0.056766
v 0.044381 0.055652 -0.056766
v 0.015839 0.069397 -0.056766
v -0.015839 0.069397 -0.056766
v -0.044381 0.055652 -0.056766
v -0.064133 0.030885 -0.056766
v -0.071182 0.000000 -0.056766
v -0.064133 -0.030885 -0.056766
v -0.044381 -0.055652 -0.056766
v -0.015839 -0.069397 -0.056766
v 0.015839 -0.069397 -0.056766
v 0.044381 -0.055652 -0.056766
v 0.064133 -0.030885 -0.056766
v 0.088762 0.000000 -0.020259
v 0.079972 0.038512 -0.020259
v 0.055342 0.069397 -0.020259
v 0.019751 0.086537 -0.020259
v -0.019751 0.086537 -0.020259
v -0.055342 0.069397 -0.020259
v -0.079972 0.038512 -0.020259
v -0.088762 0.000000 -0.020259
v -0.079972 -0.038512 -0.020259
v -0.055342 -0.069397 -0.020259
v -0.019751 -0.086537 -0.020259
v 0.019751 -0.086537 -0.020259
v 0.055342 -0.069397 -0.020259
v 0.079972 -0.038512 -0.020259
v 0.088762 0.000000 0.020259
v 0.079972 0.038512 0.020259
v 0.055342 0.069397 0.020259
v 0.019751 0.086537 0.020259
v -0.019751 0.086537 0.020259
v -0.055342 0.069397 0.020259
v -0.079972 0.038512 0.020259
v -0.088762 0.000000 0.020259
v -0.079972 -0.038512 0.020259
v -0.055342 -0.069397 0.020259
v -0.019751 -0.086537 0.020259
v 0.019751 -0.086537 0.020259
v 0.055342 -0.069397 0.020259
v 0.079972 -0.038512 0.020259
v 0.071182 0.000000 0.056766
v 0.064133 0.030885 0.056766
v 0.044381 0.055652 0.056766
v 0.015839 0.069397 0.056766
v -0.015839 0.069397 0.056766
v -0.044381 0.055652 0.056766
v -0.064133 0.030885 0.056766
v -0.071182 0.000000 0.056766
v -0.064133 -0.030885 0.056766
v -0.044381 -0.055652 0.056766
v -0.015839 -0.069397 0.056766
v 0.015839 -0.069397 0.056766
v 0.044381 -0.055652 0.056766
v 0.064133 -0.030885 0.056766
v 0.039503 0.000000 0.082029
v 0.035591 0.017140 0.082029
v 0.024630 0.030885 0.082029
v 0.008790 0.038512 0.082029
v -0.008790 0.038512 0.082029
v -0.024630 0.030885 0.082029
v -0.035591 0.017140 0.082029
v -0.039503 0.000000 0.082029
v -0.035591 -0.017140 0.082029
v -0.024630 -0.030885 0.082029
v -0.008790 -0.038512 0.082029
v 0.008790 -0.038512 0.082029
v 0.024630 -0.030885 0.082029
v 0.035591 -0.017140 0.082029
vt 0.071429 0.285714
vt 1.000000 0.285714
vt 1.000000 0.142857
vt 0.071429 0.142857
vt 0.142857 0.285714
vt 0.142857 0.142857
vt 0.214286 0.285714
vt 0.214286 0.142857
vt 0.285714 0.285714
vt 0.285714 0.142857
vt 0.357143 0.285714
vt 0.357143 0.142857
vt 0.428571 0.285714
vt 0.428571 0.142857
vt 0.500000 0.285714
vt 0.500000 0.142857
vt 0.571429 0.285714
vt 0.571429 0.142857
vt 0.642857 0.285714
vt 0.642857 0.142857
vt 0.714286 0.285714
vt 0.714286 0.142857
vt 0.785714 0.285714
vt 0.785714 0.142857
vt 0.857143 0.285714
vt 0.857143 0.142857
vt 0.928571 0.285714
vt 0.928571 0.142857
vt 0.071429 0.428571
vt 1.000000 0.428571
vt 0.142857 0.428571
vt 0.214286 0.428571
vt 0.285714 0.428571
vt 0.357143 0.428571
vt 0.428571 0.428571
vt 0.500000 0.428571
vt 0.571429 0.428571
vt 0.642857 0.428571
vt 0.714286 0.428571
vt 0.785714 0.428571
vt 0.857143 0.428571
vt 0.928571 0.428571
vt 0.071429 0.571429
vt 1.000000 0.571429
vt 0.142857 0.571429
vt 0.214286 0.571429
vt 0.285714 0.571429
vt 0.357143 0.571429
vt 0.428571 0.571429
vt 0.500000 0.571429
vt 0.571429 0.571429
vt 0.642857 0.571429
vt 0.714286 0.571429
vt 0.785714 0.571429
vt 0.857143 0.571429
vt 0.928571 0.571429
vt 0.071429 0.714286
vt 1.000000 0.714286
vt 0.142857 0.714286
vt 0.214286 0.714286
vt 0.285714 0.714286
vt 0.357143 0.714286
vt 0.428571 0.714286
vt 0.500000 0.714286
vt 0.571429 0.714286
vt 0.642857 0.714286
vt 0.714286 0.714286
vt 0.785714 0.714286
vt 0.857143 0.714286
vt 0.928571 0.714286
vt 0.071429 0.857143
vt 1.000000 0.857143
vt 0.142857 0.857143
vt 0.214286 0.857143
vt 0.285714 0.857143
vt 0.357143 0.857143
vt 0.428571 0.857143
vt 0.500000 0.857143
vt 0.571429 0.857143
vt 0.642857 0.857143
vt 0.714286 0.857143
vt 0.785714 0.857143
vt 0.857143 0.857143
vt 0.928571 0.857143
vt 0.928571 0.000000
vt 0.928571 1.000000
vn 0.699122 0.348343 -0.624408
vn 0.781028 0.010509 -0.624408
vn 0.473476 0.029050 -0.880328
vn 0.413983 0.231607 -0.880328
vn 0.478747 0.617184 -0.624408
vn 0.272495 0.388291 -0.880328
vn 0.163550 0.763784 -0.624408
vn 0.077037 0.468069 -0.880328
vn -0.184040 0.759107 -0.624408
vn -0.133680 0.455141 -0.880328
vn -0.495179 0.604080 -0.624408
vn -0.317920 0.352066 -0.880328
vn -0.708241 0.329407 -0.624408
vn -0.439191 0.179260 -0.880328
vn -0.781028 -0.010509 -0.624408
vn -0.473476 -0.029050 -0.880328
vn -0.699122 -0.348343 -0.624408
vn -0.413983 -0.231607 -0.880328
vn -0.478747 -0.617184 -0.624408
vn -0.272495 -0.388291 -0.880328
vn -0.163550 -0.763784 -0.624408
vn -0.077037 -0.468069 -0.880328
vn 0.184040 -0.759107 -0.624408
vn 0.133680 -0.455141 -0.880328
vn 0.495179 -0.604080 -0.624408
vn 0.317920 -0.352066 -0.880328
vn 0.708241 -0.329407 -0.624408
vn 0.439191 -0.179260 -0.880328
vn 0.876665 0.426276 -0.223040
vn 0.974802 0.003690 -0.223040
vn 0.604894 0.764432 -0.223040
vn 0.213316 0.951183 -0.223040
vn -0.220512 0.949541 -0.223040
vn -0.610664 0.759830 -0.223040
vn -0.879868 0.419626 -0.223040
vn -0.974802 -0.003690 -0.223040
vn -0.876665 -0.426276 -0.223040
vn -0.604894 -0.764432 -0.223040
vn -0.213316 -0.951183 -0.223040
vn 0.220512 -0.949541 -0.223040
vn 0.610664 -0.759830 -0.223040
vn 0.879868 -0.419626 -0.223040
vn 0.879868 0.419626 0.223040
vn 0.974802 -0.003690 0.223040
vn 0.610664 0.759830 0.223040
vn 0.220512 0.949541 0.223040
vn -0.213316 0.951183 0.223040
vn -0.604894 0.764432 0.223040
vn -0.876665 0.426276 0.223040
vn -0.974802 0.003690 0.223040
vn -0.879868 -0.419626 0.223040
vn -0.610664 -0.759830 0.223040
vn -0.220512 -0.949541 0.223040
vn 0.213316 -0.951183 0.223040
vn 0.604894 -0.764432 0.223040
vn 0.876665 -0.426276 0.223040
vn 0.708241 0.329407 0.624408
vn 0.781028 -0.010509 0.624408
vn 0.495179 0.604080 0.624408
vn 0.184040 0.759107 0.624408
vn -0.163550 0.763784 0.624408
vn -0.478747 0.617184 0.624408
vn -0.699122 0.348343 0.624408
vn -0.781028 0.010509 0.624408
vn -0.708241 -0.329407 0.624408
vn -0.495179 -0.604080 0.624408
vn -0.184040 -0.759107 0.624408
vn 0.163550 -0.763784 0.624408
vn 0.478747 -0.617184 0.624408
vn 0.699122 -0.348343 0.624408
vn 0.439191 0.179260 0.880328
vn 0.473476 -0.029050 0.880328
vn 0.317920 0.352066 0.880328
vn 0.133680 0.455141 0.880328
vn -0.077037 0.468069 0.880328
vn -0.272495 0.388291 0.880328
vn -0.413983 0.231607 0.880328
vn -0.473476 0.029050 0.880328
vn -0.439191 -0.179260 0.880328
vn -0.317920 -0.352066 0.880328
vn -0.133680 -0.455141 0.880328
vn 0.077037 -0.468069 0.880328
vn 0.272495 -0.388291 0.880328
vn 0.413983 -0.231607 0.880328
vn 0.000000 0.000000 -1.000000
vn 0.000000 0.000000 1.000000
f 18/1/1 17/2/2 3/3/3
f 4/4/4 18/1/1 3/3/3
f 19/5/5 18/1/1 4/4/4
f 5/6/6 19/5/5 4/4/4
f 20/7/7 19/5/5 5/6/6
f 6/8/8 20/7/7 5/6/6
f 21/9/9 20/7/7 6/8/8
f 7/10/10 21/9/9 6/8/8
f 22/11/11 21/9/9 7/10/10
f 8/12/12 22/11/11 7/10/10
f 23/13/13 22/11/11 8/12/12
f 9/14/14 23/13/13 8/12/12
f 24/15/15 23/13/13 9/14/14
f 10/16/16 24/15/15 9/14/14
f 25/17/17 24/15/15 10/16/16
f 11/18/18 25/17/17 10/16/16
f 26/19/19 25/17/17 11/18/18
f 12/20/20 26/19/19 11/18/18
f 27/21/21 26/19/19 12/20/20
f 13/22/22 27/21/21 12/20/20
f 28/23/23 27/21/21 13/22/22
f 14/24/24 28/23/23 13/22/22
f 29/25/25 28/23/23 14/24/24
f 15/26/26 29/25/25 14/24/24
f 30/27/27 29/25/25 15/26/26
f 16/28/28 30/27/27 15/26/26
f 17/2/2 30/27/27 16/28/28
f 3/3/3 17/2/2 16/28/28
f 32/29/29 31/30/30 17/2/2
f 18/1/1 32/29/29 17/2/2
f 33/31/31 32/29/29 18/1/1
f 19/5/5 33/31/31 18/1/1
f 34/32/32 33/31/31 19/5/5
f 20/7/7 34/32/32 19/5/5
f 35/33/33 34/32/32 20/7/7
f 21/9/9 35/33/33 20/7/7
f 36/34/34 35/33/33 21/9/9
f 22/11/11 36/34/34 21/9/9
f 37/35/35 36/34/34 22/11/11
f 23/13/13 37/35/35 22/11/11
f 38/36/36 37/35/35 23/13/13
f 24/15/15 38/36/36 23/13/13
f 39/37/37 38/36/36 24/15/15
f 25/17/17 39/37/37 24/15/15
f 40/38/38 39/37/37 25/17/17
f 26/19/19 40/38/38 25/17/17
f 41/39/39 40/38/38 26/19/19
f 27/21/21 41/39/39 26/19/19
f 42/40/40 41/39/39 27/21/21
f 28/23/23 42/40/40 27/21/21
f 43/41/41 42/40/40 28/23/23
f 29/25/25 43/41/41 28/23/23
f 44/42/42 43/41/41 29/25/25
f 30/27/27 44/42/42 29/25/25
f 31/30/30 44/42/42 30/27/27
f 17/2/2 31/30/30 30/27/27
f 46/43/43 45/44/44 31/30/30
f 32/29/29 46/43/43 31/30/30
f 47/45/45 46/43/43 32/29/29
f 33/31/31 47/45/45 32/29/29
f 48/46/46 47/45/45 33/31/31
f 34/32/32 48/46/46 33/31/31
f 49/47/47 48/46/46 34/32/32
f 35/33/33 49/47/47 34/32/32
f 50/48/48 49/47/47 35/33/33
f 36/34/34 50/48/48 35/33/33
f 51/49/49 50/48/48 36/34/34
f 37/35/35 51/49/49 36/34/34
f 52/50/50 51/49/49 37/35/35
f 38/36/36 52/50/50 37/35/35
f 53/51/51 52/50/50 38/36/36
f 39/37/37 53/51/51 38/36/36
f 54/52/52 53/51/51 39/37/37
f 40/38/38 54/52/52 39/37/37
f 55/53/53 54/52/52 40/38/38
f 41/39/39 55/53/53 40/38/38
f 56/54/54 55/53/53 41/39/39
f 42/40/40 56/54/54 41/39/39
f 57/55/55 56/54/54 42/40/40
f 43/41/41 57/55/55 42/40/40
f 58/56/56 57/55/55 43/41/41
f 44/42/42 58/56/56 43/41/41
f 45/44/44 58/56/56 44/42/42
f 31/30/30 45/44/44 44/42/42
f 60/57/57 59/58/58 45/44/44
f 46/43/43 60/57/57 45/44/44
f 61/59/59 60/57/57 46/43/43
f 47/45/45 61/59/59 46/43/43
f 62/60/60 61/59/59 47/45/45
f 48/46/46 62/60/60 47/45/45
f 63/61/61 62/60/60 48/46/46
f 49/47/47 63/61/61 48/46/46
f 64/62/62 63/61/61 49/47/47
f 50/48/48 64/62/62 49/47/47
f 65/63/63 64/62/62 50/48/48
f 51/49/49 65/63/63 50/48/48
f 66/64/64 65/63/63 51/49/49
f 52/50/50 66/64/64 51/49/49
f 67/65/65 66/64/64 52/50/50
f 53/51/51 67/65/65 52/50/50
f 68/66/66 67/65/65 53/51/51
f 54/52/52 68/66/66 53/51/51
f 69/67/67 68/66/66 54/52/52
f 55/53/53 69/67/67 54/52/52
f 70/68/68 69/67/67 55/53/53
f 56/54/54 70/68/68 55/53/53
f 71/69/69 70/68/68 56/54/54
f 57/55/55 71/69/69 56/54/54
f 72/70/70 71/69/69 57/55/55
f 58/56/56 72/70/70 57/55/55
f 59/58/58 72/70/70 58/56/56
f 45/44/44 59/58/58 58/56/56
f 74/71/71 73/72/72 59/58/58
f 60/57/57 74/71/71 59/58/58
f 75/73/73 74/71/71 60/57/57
f 61/59/59 75/73/73 60/57/57
f 76/74/74 75/73/73 61/59/59
f 62/60/60 76/74/74 61/59/59
f 77/75/75 76/74/74 62/60/60
f 63/61/61 77/75/75 62/60/60
f 78/76/76 77/75/75 63/61/61
f 64/62/62 78/76/76 63/61/61
f 79/77/77 78/76/76 64/62/62
f 65/63/63 79/77/77 64/62/62
f 80/78/78 79/77/77 65/63/63
f 66/64/64 80/78/78 65/63/63
f 81/79/79 80/78/78 66/64/64
f 67/65/65 81/79/79 66/64/64
f 82/80/80 81/79/79 67/65/65
f 68/66/66 82/80/80 67/65/65
f 83/81/81 82/80/80 68/66/66
f 69/67/67 83/81/81 68/66/66
f 84/82/82 83/81/81 69/67/67
f 70/68/68 84/82/82 69/67/67
f 85/83/83 84/82/82 70/68/68
f 71/69/69 85/83/83 70/68/68
f 86/84/84 85/83/83 71/69/69
f 72/70/70 86/84/84 71/69/69
f 73/72/72 86/84/84 72/70/70
f 59/58/58 73/72/72 72/70/70
f 4/4/4 3/3/3 1/85/85
f 2/86/86 73/72/72 74/71/71
f 5/6/6 4/4/4 1/85/85
f 2/86/86 74/71/71 75/73/73
f 6/8/8 5/6/6 1/85/85
f 2/86/86 75/73/73 76/74/74
f 7/10/10 6/8/8 1/85/85
f 2/86/86 76/74/74 77/75/75
f 8/12/12 7/10/10 1/85/85
f 2/86/86 77/75/75 78/76/76
f 9/14/14 8/12/12 1/85/85
f 2/86/86 78/76/76 79/77/77
f 10/16/16 9/14/14 1/85/85
f 2/86/86 79/77/77 80/78/78
f 11/18/18 10/16/16 1/85/85
f 2/86/86 80/78/78 81/79/79
f 12/20/20 11/18/18 1/85/85
f 2/86/86 81/79/79 82/80/80
f 13/22/22 12/20/20 1/85/85
f 2/86/86 82/80/80 83/81/81
f 14/24/24 13/22/22 1/85/85
f 2/86/86 83/81/81 84/82/82
f 15/26/26 14/24/24 1/85/85
f 2/86/86 84/82/82 85/83/83
f 16/28/28 15/26/26 1/85/85
f 2/86/86 85/83/83 86/84/84
f 3/3/3 16/28/28 1/85/85
f 2/86/86 86/84/84 73/72/72
