# Wavefront OBJ exported by MilkShape 3D

v -0.058269 0.000000 0.000000
v -0.732000 0.000000 0.000000
v -0.065692 0.000000 0.095789
v -0.075872 0.000000 0.107467
v -0.098744 0.000000 0.116491
v -0.140901 0.000000 0.122728
v -0.434175 0.000000 0.130740
v -0.691467 0.000000 0.102735
v -0.709049 0.000000 0.098819
v -0.720662 0.000000 0.088051
v -0.731132 0.000000 0.049127
v -0.065692 0.041561 0.086303
v -0.075872 0.046628 0.096825
v -0.098744 0.050543 0.104955
v -0.140901 0.053250 0.110574
v -0.434175 0.056726 0.117793
v -0.691467 0.044575 0.092561
v -0.709049 0.042876 0.089033
v -0.720662 0.038204 0.079331
v -0.731132 0.021316 0.044262
v -0.065692 0.074891 0.059724
v -0.075872 0.084021 0.067005
v -0.098744 0.091076 0.072631
v -0.140901 0.095953 0.076520
v -0.434175 0.102217 0.081515
v -0.691467 0.080321 0.064054
v -0.709049 0.077260 0.061613
v -0.720662 0.068841 0.054899
v -0.731132 0.038409 0.030630
v -0.065692 0.093388 0.021315
v -0.075872 0.104773 0.023914
v -0.098744 0.113570 0.025922
v -0.140901 0.119651 0.027310
v -0.434175 0.127462 0.029092
v -0.691467 0.100159 0.022861
v -0.709049 0.096341 0.021989
v -0.720662 0.085843 0.019593
v -0.731132 0.047896 0.010932
v -0.065692 0.093388 -0.021315
v -0.075872 0.104773 -0.023914
v -0.098744 0.113570 -0.025922
v -0.140901 0.119651 -0.027310
v -0.434175 0.127462 -0.029092
v -0.691467 0.100159 -0.022861
v -0.709049 0.096341 -0.021989
v -0.720662 0.085843 -0.019593
v -0.731132 0.047896 -0.010932
v -0.065692 0.074891 -0.059724
v -0.075872 0.084021 -0.067005
v -0.098744 0.091076 -0.072631
v -0.140901 0.095953 -0.076520
v -0.434175 0.102217 -0.081515
v -0.691467 0.080321 -0.064054
v -0.709049 0.077260 -0.061613
v -0.720662 0.068841 -0.054899
v -0.731132 0.038409 -0.030630
v -0.065692 0.041561 -0.086303
v -0.075872 0.046628 -0.096825
v -0.098744 0.050543 -0.104955
v -0.140901 0.053250 -0.110574
v -0.434175 0.056726 -0.117793
v -0.691467 0.044575 -0.092561
v -0.709049 0.042876 -0.089033
v -0.720662 0.038204 -0.079331
v -0.731132 0.021316 -0.044262
v -0.065692 -0.000000 -0.095789
v -0.075872 -0.000000 -0.107467
v -0.098744 -0.000000 -0.116491
v -0.140901 -0.000000 -0.122728
v -0.434175 -0.000000 -0.130740
v -0.691467 -0.000000 -0.102735
v -0.709049 -0.000000 -0.098819
v -0.720662 -0.000000 -0.088051
v -0.731132 -0.000000 -0.049127
v -0.065692 -0.041561 -0.086303
v -0.075872 -0.046628 -0.096825
v -0.098744 -0.050543 -0.104955
v -0.140901 -0.053250 -0.110574
v -0.434175 -0.056726 -0.117793
v -0.691467 -0.044575 -0.092561
v -0.709049 -0.042876 -0.089033
v -0.720662 -0.038204 -0.079331
v -0.731132 -0.021316 -0.044262
v -0.065692 -0.074891 -0.059724
v -0.075872 -0.084021 -0.067005
v -0.098744 -0.091076 -0.072631
v -0.140901 -0.095953 -0.076520
v -0.434175 -0.102217 -0.081515
v -0.691467 -0.080321 -0.064054
v -0.709049 -0.077260 -0.061613
v -0.720662 -0.068841 -0.054899
v -0.731132 -0.038409 -0.030630
v -0.065692 -0.093388 -0.021315
v -0.075872 -0.104773 -0.023914
v -0.098744 -0.113570 -0.025922
v -0.140901 -0.119651 -0.027310
v -0.434175 -0.127462 -0.029092
v -0.691467 -0.100159 -0.022861
v -0.709049 -0.096341 -0.021989
v -0.720662 -0.085843 -0.019593
v -0.731132 -0.047896 -0.010932
v -0.065692 -0.093388 0.021315
v -0.075872 -0.104773 0.023914
v -0.098744 -0.113570 0.025922
v -0.140901 -0.119651 0.027310
v -0.434175 -0.127462 0.029092
v -0.691467 -0.100159 0.022861
v -0.709049 -0.096341 0.021989
v -0.720662 -0.085843 0.019593
v -0.731132 -0.047896 0.010932
v -0.065692 -0.074891 0.059724
v -0.075872 -0.084021 0.067005
v -0.098744 -0.091076 0.072631
v -0.140901 -0.095953 0.076520
v -0.434175 -0.102217 0.081515
v -0.691467 -0.080321 0.064054
v -0.709049 -0.077260 0.061613
v -0.720662 -0.068841 0.054899
v -0.731132 -0.038409 0.030630
v -0.065692 -0.041561 0.086303
v -0.075872 -0.046628 0.096825
v -0.098744 -0.050543 0.104955
v -0.140901 -0.053250 0.110574
v -0.434175 -0.056726 0.117793
v -0.691467 -0.044575 0.092561
v -0.709049 -0.042876 0.089033
v -0.720662 -0.038204 0.079331
v -0.731132 -0.021316 0.044262
vt 0.071429 0.112468
vt 1.000000 0.112468
vt 0.964286 0.000000
vt 0.071429 0.130602
vt 1.000000 0.130602
vt 0.071429 0.159385
vt 1.000000 0.159385
vt 0.071429 0.209271
vt 1.000000 0.209271
vt 0.071429 0.552707
vt 1.000000 0.552707
vt 0.071429 0.855674
vt 1.000000 0.855674
vt 0.071429 0.876760
vt 1.000000 0.876760
vt 0.071429 0.895298
vt 1.000000 0.895298
vt 0.071429 0.942482
vt 1.000000 0.942482
vt 0.964286 1.000000
vt 0.142857 0.112468
vt 0.142857 0.130602
vt 0.142857 0.159385
vt 0.142857 0.209271
vt 0.142857 0.552707
vt 0.142857 0.855674
vt 0.142857 0.876760
vt 0.142857 0.895298
vt 0.142857 0.942482
vt 0.214286 0.112468
vt 0.214286 0.130602
vt 0.214286 0.159385
vt 0.214286 0.209271
vt 0.214286 0.552707
vt 0.214286 0.855674
vt 0.214286 0.876760
vt 0.214286 0.895298
vt 0.214286 0.942482
vt 0.285714 0.112468
vt 0.285714 0.130602
vt 0.285714 0.159385
vt 0.285714 0.209271
vt 0.285714 0.552707
vt 0.285714 0.855674
vt 0.285714 0.876760
vt 0.285714 0.895298
vt 0.285714 0.942482
vt 0.357143 0.112468
vt 0.357143 0.130602
vt 0.357143 0.159385
vt 0.357143 0.209271
vt 0.357143 0.552707
vt 0.357143 0.855674
vt 0.357143 0.876760
vt 0.357143 0.895298
vt 0.357143 0.942482
vt 0.428571 0.112468
vt 0.428571 0.130602
vt 0.428571 0.159385
vt 0.428571 0.209271
vt 0.428571 0.552707
vt 0.428571 0.855674
vt 0.428571 0.876760
vt 0.428571 0.895298
vt 0.428571 0.942482
vt 0.500000 0.112468
vt 0.500000 0.130602
vt 0.500000 0.159385
vt 0.500000 0.209271
vt 0.500000 0.552707
vt 0.500000 0.855674
vt 0.500000 0.876760
vt 0.500000 0.895298
vt 0.500000 0.942482
vt 0.571429 0.112468
vt 0.571429 0.130602
vt 0.571429 0.159385
vt 0.571429 0.209271
vt 0.571429 0.552707
vt 0.571429 0.855674
vt 0.571429 0.876760
vt 0.571429 0.895298
vt 0.571429 0.942482
vt 0.642857 0.112468
vt 0.642857 0.130602
vt 0.642857 0.159385
vt 0.642857 0.209271
vt 0.642857 0.552707
vt 0.642857 0.855674
vt 0.642857 0.876760
vt 0.642857 0.895298
vt 0.642857 0.942482
vt 0.714286 0.112468
vt 0.714286 0.130602
vt 0.714286 0.159385
vt 0.714286 0.209271
vt 0.714286 0.552707
vt 0.714286 0.855674
vt 0.714286 0.876760
vt 0.714286 0.895298
vt 0.714286 0.942482
vt 0.785714 0.112468
vt 0.785714 0.130602
vt 0.785714 0.159385
vt 0.785714 0.209271
vt 0.785714 0.552707
vt 0.785714 0.855674
vt 0.785714 0.876760
vt 0.785714 0.895298
vt 0.785714 0.942482
vt 0.857143 0.112468
vt 0.857143 0.130602
vt 0.857143 0.159385
vt 0.857143 0.209271
vt 0.857143 0.552707
vt 0.857143 0.855674
vt 0.857143 0.876760
vt 0.857143 0.895298
vt 0.857143 0.942482
vt 0.928571 0.112468
vt 0.928571 0.130602
vt 0.928571 0.159385
vt 0.928571 0.209271
vt 0.928571 0.552707
vt 0.928571 0.855674
vt 0.928571 0.876760
vt 0.928571 0.895298
vt 0.928571 0.942482
vn 0.894927 0.221395 0.387414
vn 0.894927 0.031377 0.445108
vn 1.000000 -0.000000 0.000000
vn 0.577861 0.363409 0.730760
vn 0.577861 0.010355 0.816069
vn 0.258523 0.421075 0.869403
vn 0.258523 0.002156 0.966003
vn 0.087011 0.432578 0.897388
vn 0.087011 0.000377 0.996207
vn -0.040552 0.433347 0.900314
vn -0.040552 -0.000199 0.999177
vn -0.163075 0.427486 0.889192
vn -0.163075 -0.000654 0.986613
vn -0.466029 0.375561 0.801106
vn -0.466029 -0.009218 0.884721
vn -0.856937 0.206818 0.472107
vn -0.856937 -0.018503 0.515089
vn -0.986389 0.060401 0.152932
vn -0.986389 -0.011935 0.163994
vn -1.000000 -0.000000 0.000000
vn 0.894927 0.367563 0.252988
vn 0.577861 0.644485 0.500715
vn 0.258523 0.756595 0.600607
vn 0.087011 0.779101 0.620830
vn -0.040552 0.781064 0.623133
vn -0.163075 0.770957 0.615655
vn -0.466029 0.685956 0.558822
vn -0.856937 0.391177 0.335619
vn -0.986389 0.120774 0.111580
vn 0.894927 0.440930 0.068455
vn 0.577861 0.797913 0.171497
vn 0.258523 0.942263 0.212854
vn 0.087011 0.971314 0.221310
vn -0.040552 0.974082 0.222532
vn -0.163075 0.961731 0.220180
vn -0.466029 0.860488 0.205856
vn -0.856937 0.498058 0.132657
vn -0.986389 0.157227 0.048128
vn 0.894927 0.426966 -0.129636
vn 0.577861 0.793304 -0.191688
vn 0.258523 0.941303 -0.217058
vn 0.087011 0.971146 -0.222044
vn -0.040552 0.974170 -0.222144
vn -0.163075 0.962023 -0.218904
vn -0.466029 0.864591 -0.187882
vn -0.856937 0.506292 -0.096579
vn -0.986389 0.162538 -0.024856
vn 0.894927 0.328436 -0.302052
vn 0.577861 0.631573 -0.516907
vn 0.258523 0.753907 -0.603978
vn 0.087011 0.778631 -0.621420
vn -0.040552 0.781313 -0.622821
vn -0.163075 0.771773 -0.614632
vn -0.466029 0.697450 -0.544408
vn -0.856937 0.414249 -0.306687
vn -0.986389 0.135657 -0.092917
vn 0.894927 0.164855 -0.414642
vn 0.577861 0.344750 -0.739746
vn 0.258523 0.417191 -0.871274
vn 0.087011 0.431899 -0.897715
vn -0.040552 0.433706 -0.900141
vn -0.163075 0.428665 -0.888624
vn -0.466029 0.392171 -0.793107
vn -0.856937 0.240159 -0.456051
vn -0.986389 0.081907 -0.142575
vn 0.894927 -0.031377 -0.445108
vn 0.577861 -0.010355 -0.816069
vn 0.258523 -0.002156 -0.966003
vn 0.087011 -0.000377 -0.996207
vn -0.040552 0.000199 -0.999177
vn -0.163075 0.000654 -0.986613
vn -0.466029 0.009218 -0.884721
vn -0.856937 0.018503 -0.515089
vn -0.986389 0.011935 -0.163994
vn 0.894927 -0.221395 -0.387414
vn 0.577861 -0.363409 -0.730760
vn 0.258523 -0.421075 -0.869403
vn 0.087011 -0.432578 -0.897388
vn -0.040552 -0.433347 -0.900314
vn -0.163075 -0.427486 -0.889192
vn -0.466029 -0.375561 -0.801106
vn -0.856937 -0.206818 -0.472107
vn -0.986389 -0.060401 -0.152932
vn 0.894927 -0.367563 -0.252988
vn 0.577861 -0.644485 -0.500715
vn 0.258523 -0.756595 -0.600607
vn 0.087011 -0.779101 -0.620830
vn -0.040552 -0.781064 -0.623133
vn -0.163075 -0.770958 -0.615655
vn -0.466029 -0.685956 -0.558822
vn -0.856937 -0.391177 -0.335619
vn -0.986389 -0.120774 -0.111580
vn 0.894927 -0.440930 -0.068455
vn 0.577861 -0.797913 -0.171497
vn 0.258523 -0.942263 -0.212854
vn 0.087011 -0.971314 -0.221309
vn -0.040552 -0.974082 -0.222532
vn -0.163075 -0.961731 -0.220180
vn -0.466029 -0.860488 -0.205856
vn -0.856937 -0.498057 -0.132657
vn -0.986389 -0.157227 -0.048128
vn 0.894927 -0.426966 0.129636
vn 0.577861 -0.793304 0.191688
vn 0.258523 -0.941303 0.217058
vn 0.087011 -0.971146 0.222045
vn -0.040552 -0.974170 0.222144
vn -0.163075 -0.962023 0.218904
vn -0.466029 -0.864591 0.187882
vn -0.856937 -0.506292 0.096579
vn -0.986389 -0.162538 0.024856
vn 0.894927 -0.328436 0.302052
vn 0.577861 -0.631572 0.516907
vn 0.258523 -0.753907 0.603978
vn 0.087011 -0.778631 0.621420
vn -0.040552 -0.781313 0.622821
vn -0.163075 -0.771773 0.614632
vn -0.466029 -0.697450 0.544408
vn -0.856937 -0.414249 0.306687
vn -0.986389 -0.135657 0.092918
vn 0.894927 -0.164855 0.414642
vn 0.577861 -0.344750 0.739746
vn 0.258523 -0.417190 0.871274
vn 0.087011 -0.431899 0.897715
vn -0.040552 -0.433706 0.900141
vn -0.163075 -0.428665 0.888624
vn -0.466029 -0.392171 0.793107
vn -0.856937 -0.240159 0.456051
vn -0.986389 -0.081907 0.142575
f 12/1/1 3/2/2 1/3/3
f 13/4/4 4/5/5 3/2/2
f 12/1/1 13/4/4 3/2/2
f 14/6/6 5/7/7 4/5/5
f 13/4/4 14/6/6 4/5/5
f 15/8/8 6/9/9 5/7/7
f 14/6/6 15/8/8 5/7/7
f 16/10/10 7/11/11 6/9/9
f 15/8/8 16/10/10 6/9/9
f 17/12/12 8/13/13 7/11/11
f 16/10/10 17/12/12 7/11/11
f 18/14/14 9/15/15 8/13/13
f 17/12/12 18/14/14 8/13/13
f 19/16/16 10/17/17 9/15/15
f 18/14/14 19/16/16 9/15/15
f 20/18/18 11/19/19 10/17/17
f 19/16/16 20/18/18 10/17/17
f 20/18/18 2/20/20 11/19/19
f 21/21/21 12/1/1 1/3/3
f 22/22/22 13/4/4 12/1/1
f 21/21/21 22/22/22 12/1/1
f 23/23/23 14/6/6 13/4/4
f 22/22/22 23/23/23 13/4/4
f 24/24/24 15/8/8 14/6/6
f 23/23/23 24/24/24 14/6/6
f 25/25/25 16/10/10 15/8/8
f 24/24/24 25/25/25 15/8/8
f 26/26/26 17/12/12 16/10/10
f 25/25/25 26/26/26 16/10/10
f 27/27/27 18/14/14 17/12/12
f 26/26/26 27/27/27 17/12/12
f 28/28/28 19/16/16 18/14/14
f 27/27/27 28/28/28 18/14/14
f 29/29/29 20/18/18 19/16/16
f 28/28/28 29/29/29 19/16/16
f 29/29/29 2/20/20 20/18/18
f 30/30/30 21/21/21 1/3/3
f 31/31/31 22/22/22 21/21/21
f 30/30/30 31/31/31 21/21/21
f 32/32/32 23/23/23 22/22/22
f 31/31/31 32/32/32 22/22/22
f 33/33/33 24/24/24 23/23/23
f 32/32/32 33/33/33 23/23/23
f 34/34/34 25/25/25 24/24/24
f 33/33/33 34/34/34 24/24/24
f 35/35/35 26/26/26 25/25/25
f 34/34/34 35/35/35 25/25/25
f 36/36/36 27/27/27 26/26/26
f 35/35/35 36/36/36 26/26/26
f 37/37/37 28/28/28 27/27/27
f 36/36/36 37/37/37 27/27/27
f 38/38/38 29/29/29 28/28/28
f 37/37/37 38/38/38 28/28/28
f 38/38/38 2/20/20 29/29/29
f 39/39/39 30/30/30 1/3/3
f 40/40/40 31/31/31 30/30/30
f 39/39/39 40/40/40 30/30/30
f 41/41/41 32/32/32 31/31/31
f 40/40/40 41/41/41 31/31/31
f 42/42/42 33/33/33 32/32/32
f 41/41/41 42/42/42 32/32/32
f 43/43/43 34/34/34 33/33/33
f 42/42/42 43/43/43 33/33/33
f 44/44/44 35/35/35 34/34/34
f 43/43/43 44/44/44 34/34/34
f 45/45/45 36/36/36 35/35/35
f 44/44/44 45/45/45 35/35/35
f 46/46/46 37/37/37 36/36/36
f 45/45/45 46/46/46 36/36/36
f 47/47/47 38/38/38 37/37/37
f 46/46/46 47/47/47 37/37/37
f 47/47/47 2/20/20 38/38/38
f 48/48/48 39/39/39 1/3/3
f 49/49/49 40/40/40 39/39/39
f 48/48/48 49/49/49 39/39/39
f 50/50/50 41/41/41 40/40/40
f 49/49/49 50/50/50 40/40/40
f 51/51/51 42/42/42 41/41/41
f 50/50/50 51/51/51 41/41/41
f 52/52/52 43/43/43 42/42/42
f 51/51/51 52/52/52 42/42/42
f 53/53/53 44/44/44 43/43/43
f 52/52/52 53/53/53 43/43/43
f 54/54/54 45/45/45 44/44/44
f 53/53/53 54/54/54 44/44/44
f 55/55/55 46/46/46 45/45/45
f 54/54/54 55/55/55 45/45/45
f 56/56/56 47/47/47 46/46/46
f 55/55/55 56/56/56 46/46/46
f 56/56/56 2/20/20 47/47/47
f 57/57/57 48/48/48 1/3/3
f 58/58/58 49/49/49 48/48/48
f 57/57/57 58/58/58 48/48/48
f 59/59/59 50/50/50 49/49/49
f 58/58/58 59/59/59 49/49/49
f 60/60/60 51/51/51 50/50/50
f 59/59/59 60/60/60 50/50/50
f 61/61/61 52/52/52 51/51/51
f 60/60/60 61/61/61 51/51/51
f 62/62/62 53/53/53 52/52/52
f 61/61/61 62/62/62 52/52/52
f 63/63/63 54/54/54 53/53/53
f 62/62/62 63/63/63 53/53/53
f 64/64/64 55/55/55 54/54/54
f 63/63/63 64/64/64 54/54/54
f 65/65/65 56/56/56 55/55/55
f 64/64/64 65/65/65 55/55/55
f 65/65/65 2/20/20 56/56/56
f 66/66/66 57/57/57 1/3/3
f 67/67/67 58/58/58 57/57/57
f 66/66/66 67/67/67 57/57/57
f 68/68/68 59/59/59 58/58/58
f 67/67/67 68/68/68 58/58/58
f 69/69/69 60/60/60 59/59/59
f 68/68/68 69/69/69 59/59/59
f 70/70/70 61/61/61 60/60/60
f 69/69/69 70/70/70 60/60/60
f 71/71/71 62/62/62 61/61/61
f 70/70/70 71/71/71 61/61/61
f 72/72/72 63/63/63 62/62/62
f 71/71/71 72/72/72 62/62/62
f 73/73/73 64/64/64 63/63/63
f 72/72/72 73/73/73 63/63/63
f 74/74/74 65/65/65 64/64/64
f 73/73/73 74/74/74 64/64/64
f 74/74/74 2/20/20 65/65/65
f 75/75/75 66/66/66 1/3/3
f 76/76/76 67/67/67 66/66/66
f 75/75/75 76/76/76 66/66/66
f 77/77/77 68/68/68 67/67/67
f 76/76/76 77/77/77 67/67/67
f 78/78/78 69/69/69 68/68/68
f 77/77/77 78/78/78 68/68/68
f 79/79/79 70/70/70 69/69/69
f 78/78/78 79/79/79 69/69/69
f 80/80/80 71/71/71 70/70/70
f 79/79/79 80/80/80 70/70/70
f 81/81/81 72/72/72 71/71/71
f 80/80/80 81/81/81 71/71/71
f 82/82/82 73/73/73 72/72/72
f 81/81/81 82/82/82 72/72/72
f 83/83/83 74/74/74 73/73/73
f 82/82/82 83/83/83 73/73/73
f 83/83/83 2/20/20 74/74/74
f 84/84/84 75/75/75 1/3/3
f 85/85/85 76/76/76 75/75/75
f 84/84/84 85/85/85 75/75/75
f 86/86/86 77/77/77 76/76/76
f 85/85/85 86/86/86 76/76/76
f 87/87/87 78/78/78 77/77/77
f 86/86/86 87/87/87 77/77/77
f 88/88/88 79/79/79 78/78/78
f 87/87/87 88/88/88 78/78/78
f 89/89/89 80/80/80 79/79/79
f 88/88/88 89/89/89 79/79/79
f 90/90/90 81/81/81 80/80/80
f 89/89/89 90/90/90 80/80/80
f 91/91/91 82/82/82 81/81/81
f 90/90/90 91/91/91 81/81/81
f 92/92/92 83/83/83 82/82/82
f 91/91/91 92/92/92 82/82/82
f 92/92/92 2/20/20 83/83/83
f 93/93/93 84/84/84 1/3/3
f 94/94/94 85/85/85 84/84/84
f 93/93/93 94/94/94 84/84/84
f 95/95/95 86/86/86 85/85/85
f 94/94/94 95/95/95 85/85/85
f 96/96/96 87/87/87 86/86/86
f 95/95/95 96/96/96 86/86/86
f 97/97/97 88/88/88 87/87/87
f 96/96/96 97/97/97 87/87/87
f 98/98/98 89/89/89 88/88/88
f 97/97/97 98/98/98 88/88/88
f 99/99/99 90/90/90 89/89/89
f 98/98/98 99/99/99 89/89/89
f 100/100/100 91/91/91 90/90/90
f 99/99/99 100/100/100 90/90/90
f 101/101/101 92/92/92 91/91/91
f 100/100/100 101/101/101 91/91/91
f 101/101/101 2/20/20 92/92/92
f 102/102/102 93/93/93 1/3/3
f 103/103/103 94/94/94 93/93/93
f 102/102/102 103/103/103 93/93/93
f 104/104/104 95/95/95 94/94/94
f 103/103/103 104/104/104 94/94/94
f 105/105/105 96/96/96 95/95/95
f 104/104/104 105/105/105 95/95/95
f 106/106/106 97/97/97 96/96/96
f 105/105/105 106/106/106 96/96/96
f 107/107/107 98/98/98 97/97/97
f 106/106/106 107/107/107 97/97/97
f 108/108/108 99/99/99 98/98/98
f 107/107/107 108/108/108 98/98/98
f 109/109/109 100/100/100 99/99/99
f 108/108/108 109/109/109 99/99/99
f 110/110/110 101/101/101 100/100/100
f 109/109/109 110/110/110 100/100/100
f 110/110/110 2/20/20 101/101/101
f 111/111/111 102/102/102 1/3/3
f 112/112/112 103/103/103 102/102/102
f 111/111/111 112/112/112 102/102/102
f 113/113/113 104/104/104 103/103/103
f 112/112/112 113/113/113 103/103/103
f 114/114/114 105/105/105 104/104/104
f 113/113/113 114/114/114 104/104/104
f 115/115/115 106/106/106 105/105/105
f 114/114/114 115/115/115 105/105/105
f 116/116/116 107/107/107 106/106/106
f 115/115/115 116/116/116 106/106/106
f 117/117/117 108/108/108 107/107/107
f 116/116/116 117/117/117 107/107/107
f 118/118/118 109/109/109 108/108/108
f 117/117/117 118/118/118 108/108/108
f 119/119/119 110/110/110 109/109/109
f 118/118/118 119/119/119 109/109/109
f 119/119/119 2/20/20 110/110/110
f 120/120/120 111/111/111 1/3/3
f 121/121/121 112/112/112 111/111/111
f 120/120/120 121/121/121 111/111/111
f 122/122/122 113/113/113 112/112/112
f 121/121/121 122/122/122 112/112/112
f 123/123/123 114/114/114 113/113/113
f 122/122/122 123/123/123 113/113/113
f 124/124/124 115/115/115 114/114/114
f 123/123/123 124/124/124 114/114/114
f 125/125/125 116/116/116 115/115/115
f 124/124/124 125/125/125 115/115/115
f 126/126/126 117/117/117 116/116/116
f 125/125/125 126/126/126 116/116/116
f 127/127/127 118/118/118 117/117/117
f 126/126/126 127/127/127 117/117/117
f 128/128/128 119/119/119 118/118/118
f 127/127/127 128/128/128 118/118/118
f 128/128/128 2/20/20 119/119/119
f 3/2/2 120/120/120 1/3/3
f 4/5/5 121/121/121 120/120/120
f 3/2/2 4/5/5 120/120/120
f 5/7/7 122/122/122 121/121/121
f 4/5/5 5/7/7 121/121/121
f 6/9/9 123/123/123 122/122/122
f 5/7/7 6/9/9 122/122/122
f 7/11/11 124/124/124 123/123/123
f 6/9/9 7/11/11 123/123/123
f 8/13/13 125/125/125 124/124/124
f 7/11/11 8/13/13 124/124/124
f 9/15/15 126/126/126 125/125/125
f 8/13/13 9/15/15 125/125/125
f 10/17/17 127/127/127 126/126/126
f 9/15/15 10/17/17 126/126/126
f 11/19/19 128/128/128 127/127/127
f 10/17/17 11/19/19 127/127/127
f 11/19/19 2/20/20 128/128/128
