# Wavefront OBJ exported by MilkShape 3D

v -0.000715 0.096568 -1.106541
v -0.000028 0.003799 -0.043536
v 0.077700 0.096327 -1.096399
v 0.093717 0.095277 -1.082858
v 0.107440 0.089130 -1.011134
v 0.112734 0.076431 -0.865126
v 0.135291 0.044984 -0.502687
v 0.127486 0.012041 -0.125955
v 0.114637 0.007204 -0.071746
v 0.097313 0.005430 -0.053058
v 0.052305 0.004107 -0.042137
v 0.069657 0.130155 -1.093441
v 0.084032 0.136011 -1.079296
v 0.096351 0.135764 -1.007057
v 0.101112 0.125308 -0.860853
v 0.121379 0.103492 -0.497571
v 0.114400 0.067077 -0.121144
v 0.102873 0.056682 -0.067420
v 0.087327 0.047429 -0.049387
v 0.046937 0.026685 -0.040164
v 0.047677 0.157155 -1.091071
v 0.057564 0.168523 -1.076442
v 0.066050 0.172986 -1.003789
v 0.069353 0.164320 -0.857427
v 0.083362 0.150192 -0.493471
v 0.078639 0.111005 -0.117287
v 0.070724 0.096173 -0.063953
v 0.060037 0.080950 -0.046444
v 0.032267 0.044706 -0.038581
v 0.016113 0.171980 -1.089757
v 0.019557 0.186375 -1.074859
v 0.022537 0.193424 -1.001977
v 0.023747 0.185741 -0.855529
v 0.028770 0.175833 -0.491198
v 0.027287 0.135124 -0.115149
v 0.024558 0.117857 -0.062031
v 0.020850 0.099356 -0.044812
v 0.011200 0.054601 -0.037704
v -0.018782 0.171693 -1.089759
v -0.022463 0.186030 -1.074862
v -0.025569 0.193029 -1.001980
v -0.026673 0.185327 -0.855532
v -0.031585 0.175337 -0.491203
v -0.029486 0.134658 -0.115153
v -0.026481 0.117437 -0.062034
v -0.022473 0.099000 -0.044815
v -0.012090 0.054409 -0.037706
v -0.050097 0.156352 -1.091078
v -0.060172 0.167556 -1.076450
v -0.068740 0.171879 -1.003798
v -0.071921 0.163160 -0.857437
v -0.085748 0.148803 -0.493483
v -0.080435 0.109699 -0.117298
v -0.072285 0.094999 -0.063963
v -0.061352 0.079953 -0.046452
v -0.032991 0.044170 -0.038586
v -0.071630 0.128994 -1.093451
v -0.086101 0.134614 -1.079309
v -0.098425 0.134165 -1.007070
v -0.103034 0.123632 -0.860867
v -0.122992 0.101486 -0.497589
v -0.115469 0.065189 -0.121160
v -0.103780 0.054984 -0.067435
v -0.088087 0.045988 -0.049399
v -0.047363 0.025911 -0.040170
v -0.079116 0.095039 -1.096410
v -0.095116 0.093726 -1.082871
v -0.108746 0.087355 -1.011149
v -0.113851 0.074570 -0.865142
v -0.135940 0.042757 -0.502706
v -0.127649 0.009945 -0.125973
v -0.114730 0.005320 -0.071762
v -0.097381 0.003832 -0.053072
v -0.052360 0.003248 -0.042145
v -0.071073 0.061212 -1.099367
v -0.085430 0.052992 -1.086432
v -0.097657 0.040720 -1.015226
v -0.102229 0.025692 -0.869415
v -0.122029 -0.015752 -0.507821
v -0.114563 -0.045091 -0.130785
v -0.102965 -0.044158 -0.076087
v -0.087395 -0.038167 -0.056744
v -0.046991 -0.019330 -0.044119
v -0.049093 0.034212 -1.101738
v -0.058963 0.020480 -1.089286
v -0.067356 0.003498 -1.018494
v -0.070470 -0.013320 -0.872840
v -0.084012 -0.062451 -0.511921
v -0.078802 -0.089019 -0.134641
v -0.070816 -0.083649 -0.079554
v -0.060106 -0.071688 -0.059687
v -0.032321 -0.037351 -0.045701
v -0.017530 0.019387 -1.103052
v -0.020955 0.002628 -1.090869
v -0.023843 -0.016939 -1.020305
v -0.024864 -0.034740 -0.874739
v -0.029420 -0.088093 -0.514194
v -0.027450 -0.113139 -0.136780
v -0.024650 -0.105333 -0.081477
v -0.020919 -0.090094 -0.061318
v -0.011255 -0.047245 -0.046578
v 0.017365 0.019673 -1.103049
v 0.021064 0.002973 -1.090866
v 0.024263 -0.016544 -1.020302
v 0.025555 -0.034326 -0.874735
v 0.030935 -0.087597 -0.514189
v 0.029323 -0.112672 -0.136776
v 0.026389 -0.104914 -0.081473
v 0.022405 -0.089738 -0.061315
v 0.012036 -0.047054 -0.046576
v 0.048681 0.035015 -1.101731
v 0.058773 0.021447 -1.089278
v 0.067434 0.004605 -1.018484
v 0.070803 -0.012160 -0.872830
v 0.085098 -0.061063 -0.511909
v 0.080272 -0.087713 -0.134630
v 0.072192 -0.082475 -0.079544
v 0.061284 -0.070691 -0.059678
v 0.032937 -0.036815 -0.045696
v 0.070214 0.062372 -1.099357
v 0.084702 0.054389 -1.086420
v 0.097119 0.042320 -1.015212
v 0.101917 0.027369 -0.869400
v 0.122343 -0.013745 -0.507803
v 0.115306 -0.043203 -0.130768
v 0.103688 -0.042460 -0.076073
v 0.088018 -0.036726 -0.056731
v 0.047309 -0.018555 -0.044112
vt 0.071429 0.063616
vt 1.000000 0.063616
vt 0.964286 0.000000
vt 0.071429 0.080512
vt 1.000000 0.080512
vt 0.071429 0.139473
vt 1.000000 0.139473
vt 0.071429 0.257467
vt 1.000000 0.257467
vt 0.071429 0.550730
vt 1.000000 0.550730
vt 0.071429 0.855057
vt 1.000000 0.855057
vt 0.071429 0.900049
vt 1.000000 0.900049
vt 0.071429 0.920601
vt 1.000000 0.920601
vt 0.071429 0.957879
vt 1.000000 0.957879
vt 0.964286 1.000000
vt 0.142857 0.063616
vt 0.142857 0.080512
vt 0.142857 0.139473
vt 0.142857 0.257467
vt 0.142857 0.550730
vt 0.142857 0.855057
vt 0.142857 0.900049
vt 0.142857 0.920601
vt 0.142857 0.957879
vt 0.214286 0.063616
vt 0.214286 0.080512
vt 0.214286 0.139473
vt 0.214286 0.257467
vt 0.214286 0.550730
vt 0.214286 0.855057
vt 0.214286 0.900049
vt 0.214286 0.920601
vt 0.214286 0.957879
vt 0.285714 0.063616
vt 0.285714 0.080512
vt 0.285714 0.139473
vt 0.285714 0.257467
vt 0.285714 0.550730
vt 0.285714 0.855057
vt 0.285714 0.900049
vt 0.285714 0.920601
vt 0.285714 0.957879
vt 0.357143 0.063616
vt 0.357143 0.080512
vt 0.357143 0.139473
vt 0.357143 0.257467
vt 0.357143 0.550730
vt 0.357143 0.855057
vt 0.357143 0.900049
vt 0.357143 0.920601
vt 0.357143 0.957879
vt 0.428571 0.063616
vt 0.428571 0.080512
vt 0.428571 0.139473
vt 0.428571 0.257467
vt 0.428571 0.550730
vt 0.428571 0.855057
vt 0.428571 0.900049
vt 0.428571 0.920601
vt 0.428571 0.957879
vt 0.500000 0.063616
vt 0.500000 0.080512
vt 0.500000 0.139473
vt 0.500000 0.257467
vt 0.500000 0.550730
vt 0.500000 0.855057
vt 0.500000 0.900049
vt 0.500000 0.920601
vt 0.500000 0.957879
vt 0.571429 0.063616
vt 0.571429 0.080512
vt 0.571429 0.139473
vt 0.571429 0.257467
vt 0.571429 0.550730
vt 0.571429 0.855057
vt 0.571429 0.900049
vt 0.571429 0.920601
vt 0.571429 0.957879
vt 0.642857 0.063616
vt 0.642857 0.080512
vt 0.642857 0.139473
vt 0.642857 0.257467
vt 0.642857 0.550730
vt 0.642857 0.855057
vt 0.642857 0.900049
vt 0.642857 0.920601
vt 0.642857 0.957879
vt 0.714286 0.063616
vt 0.714286 0.080512
vt 0.714286 0.139473
vt 0.714286 0.257467
vt 0.714286 0.550730
vt 0.714286 0.855057
vt 0.714286 0.900049
vt 0.714286 0.920601
vt 0.714286 0.957879
vt 0.785714 0.063616
vt 0.785714 0.080512
vt 0.785714 0.139473
vt 0.785714 0.257467
vt 0.785714 0.550730
vt 0.785714 0.855057
vt 0.785714 0.900049
vt 0.785714 0.920601
vt 0.785714 0.957879
vt 0.857143 0.063616
vt 0.857143 0.080512
vt 0.857143 0.139473
vt 0.857143 0.257467
vt 0.857143 0.550730
vt 0.857143 0.855057
vt 0.857143 0.900049
vt 0.857143 0.920601
vt 0.857143 0.957879
vt 0.928571 0.063616
vt 0.928571 0.080512
vt 0.928571 0.139473
vt 0.928571 0.257467
vt 0.928571 0.550730
vt 0.928571 0.855057
vt 0.928571 0.900049
vt 0.928571 0.920601
vt 0.928571 0.957879
vn 0.395393 0.305283 -0.866295
vn 0.455458 0.111560 -0.883240
vn -0.000644 0.086939 -0.996213
vn 0.768234 0.434951 -0.469717
vn 0.862407 0.064034 -0.502149
vn 0.891458 0.447123 -0.073375
vn 0.993666 0.018458 -0.110851
vn 0.896325 0.443274 -0.010433
vn 0.998766 0.012362 -0.048105
vn 0.897168 0.441329 0.017856
vn 0.999753 0.010009 -0.019851
vn 0.890674 0.424211 0.163541
vn 0.992008 -0.003829 0.126120
vn 0.795803 0.338711 0.501969
vn 0.882363 -0.042727 0.468625
vn 0.462738 0.129738 0.876950
vn 0.506126 -0.090306 0.857719
vn 0.124190 -0.037730 0.991541
vn 0.133048 -0.095931 0.986456
vn 0.000643 -0.086940 0.996213
vn 0.256902 0.453855 -0.853239
vn 0.521837 0.728421 -0.443947
vn 0.612672 0.789148 -0.043347
vn 0.616350 0.787224 0.019764
vn 0.616885 0.785584 0.048081
vn 0.612947 0.766050 0.193552
vn 0.551684 0.644950 0.528852
vn 0.327809 0.309233 0.892702
vn 0.090861 0.010876 0.995804
vn 0.067416 0.527848 -0.846659
vn 0.172020 0.886318 -0.429941
vn 0.212524 0.976791 -0.026713
vn 0.214294 0.976087 0.036506
vn 0.214417 0.974588 0.064835
vn 0.213835 0.953984 0.210211
vn 0.198357 0.815336 0.543950
vn 0.128064 0.412625 0.901854
vn 0.039661 0.040261 0.998402
vn -0.135538 0.512606 -0.847859
vn -0.211932 0.877369 -0.430474
vn -0.229731 0.972886 -0.026768
vn -0.230213 0.972456 0.036476
vn -0.230520 0.970907 0.064801
vn -0.227614 0.950789 0.210217
vn -0.194197 0.816122 0.544272
vn -0.096937 0.419438 0.902594
vn -0.019267 0.044605 0.998819
vn -0.311758 0.411150 -0.856599
vn -0.553973 0.703347 -0.445441
vn -0.626499 0.778207 -0.043501
vn -0.629129 0.777052 0.019681
vn -0.629803 0.775271 0.047986
vn -0.623965 0.757099 0.193570
vn -0.548227 0.647153 0.529755
vn -0.302627 0.328321 0.894775
vn -0.074253 0.023047 0.996973
vn -0.426344 0.243575 -0.871150
vn -0.786357 0.398718 -0.471876
vn -0.899195 0.431314 -0.073598
vn -0.903445 0.428575 -0.010553
vn -0.904348 0.426427 0.017720
vn -0.896715 0.411276 0.163566
vn -0.793615 0.341894 0.503273
vn -0.448269 0.157322 0.879946
vn -0.114406 -0.020142 0.993230
vn -0.456602 0.043070 -0.888628
vn -0.863057 0.023819 -0.504544
vn -0.993809 0.000911 -0.111098
vn -0.998828 -0.003954 -0.048239
vn -0.999779 -0.006531 -0.020003
vn -0.991845 -0.018186 0.126148
vn -0.881757 -0.039193 0.470073
vn -0.505016 -0.059690 0.861044
vn -0.131773 -0.076409 0.988331
vn -0.396538 -0.150653 -0.905572
vn -0.768884 -0.347098 -0.536974
vn -0.891601 -0.427754 -0.148574
vn -0.896388 -0.434866 -0.085910
vn -0.897193 -0.437851 -0.057711
vn -0.890511 -0.446226 0.088728
vn -0.795197 -0.420631 0.436729
vn -0.461628 -0.279735 0.841812
vn -0.122915 -0.134609 0.983246
vn -0.258047 -0.299224 -0.918628
vn -0.522488 -0.640567 -0.562744
vn -0.612815 -0.769779 -0.178603
vn -0.616413 -0.778816 -0.116108
vn -0.616910 -0.782106 -0.087935
vn -0.612784 -0.788066 0.058716
vn -0.551078 -0.726870 0.409846
vn -0.326699 -0.459229 0.826061
vn -0.089585 -0.183215 0.978982
vn -0.068561 -0.373217 -0.925207
vn -0.172671 -0.798464 -0.576750
vn -0.212667 -0.957421 -0.195237
vn -0.214356 -0.967679 -0.132850
vn -0.214443 -0.971110 -0.104689
vn -0.213672 -0.976000 0.042058
vn -0.197751 -0.897256 0.394748
vn -0.126953 -0.562621 0.816909
vn -0.038386 -0.212600 0.976385
vn 0.134393 -0.357976 -0.924008
vn 0.211282 -0.789515 -0.576216
vn 0.229587 -0.953517 -0.195182
vn 0.230151 -0.964049 -0.132820
vn 0.230495 -0.967429 -0.104655
vn 0.227777 -0.972805 0.042051
vn 0.194803 -0.898042 0.394426
vn 0.098047 -0.569434 0.816169
vn 0.020542 -0.216944 0.975968
vn 0.310615 -0.256520 -0.915268
vn 0.553323 -0.615493 -0.561250
vn 0.626356 -0.758838 -0.178448
vn 0.629067 -0.768644 -0.116025
vn 0.629778 -0.771793 -0.087840
vn 0.624128 -0.779114 0.058699
vn 0.548834 -0.729073 0.408943
vn 0.303737 -0.478317 0.823988
vn 0.075528 -0.195387 0.977814
vn 0.425200 -0.088945 -0.900718
vn 0.785707 -0.310865 -0.534816
vn 0.899052 -0.411944 -0.148351
vn 0.903382 -0.420167 -0.085790
vn 0.904323 -0.422949 -0.057574
vn 0.896878 -0.433291 0.088702
vn 0.794221 -0.423814 0.435424
vn 0.449379 -0.307319 0.838817
vn 0.115681 -0.152197 0.981557
f 12/1/1 3/2/2 1/3/3
f 13/4/4 4/5/5 3/2/2
f 12/1/1 13/4/4 3/2/2
f 14/6/6 5/7/7 4/5/5
f 13/4/4 14/6/6 4/5/5
f 15/8/8 6/9/9 5/7/7
f 14/6/6 15/8/8 5/7/7
f 16/10/10 7/11/11 6/9/9
f 15/8/8 16/10/10 6/9/9
f 17/12/12 8/13/13 7/11/11
f 16/10/10 17/12/12 7/11/11
f 18/14/14 9/15/15 8/13/13
f 17/12/12 18/14/14 8/13/13
f 19/16/16 10/17/17 9/15/15
f 18/14/14 19/16/16 9/15/15
f 20/18/18 11/19/19 10/17/17
f 19/16/16 20/18/18 10/17/17
f 20/18/18 2/20/20 11/19/19
f 21/21/21 12/1/1 1/3/3
f 22/22/22 13/4/4 12/1/1
f 21/21/21 22/22/22 12/1/1
f 23/23/23 14/6/6 13/4/4
f 22/22/22 23/23/23 13/4/4
f 24/24/24 15/8/8 14/6/6
f 23/23/23 24/24/24 14/6/6
f 25/25/25 16/10/10 15/8/8
f 24/24/24 25/25/25 15/8/8
f 26/26/26 17/12/12 16/10/10
f 25/25/25 26/26/26 16/10/10
f 27/27/27 18/14/14 17/12/12
f 26/26/26 27/27/27 17/12/12
f 28/28/28 19/16/16 18/14/14
f 27/27/27 28/28/28 18/14/14
f 29/29/29 20/18/18 19/16/16
f 28/28/28 29/29/29 19/16/16
f 29/29/29 2/20/20 20/18/18
f 30/30/30 21/21/21 1/3/3
f 31/31/31 22/22/22 21/21/21
f 30/30/30 31/31/31 21/21/21
f 32/32/32 23/23/23 22/22/22
f 31/31/31 32/32/32 22/22/22
f 33/33/33 24/24/24 23/23/23
f 32/32/32 33/33/33 23/23/23
f 34/34/34 25/25/25 24/24/24
f 33/33/33 34/34/34 24/24/24
f 35/35/35 26/26/26 25/25/25
f 34/34/34 35/35/35 25/25/25
f 36/36/36 27/27/27 26/26/26
f 35/35/35 36/36/36 26/26/26
f 37/37/37 28/28/28 27/27/27
f 36/36/36 37/37/37 27/27/27
f 38/38/38 29/29/29 28/28/28
f 37/37/37 38/38/38 28/28/28
f 38/38/38 2/20/20 29/29/29
f 39/39/39 30/30/30 1/3/3
f 40/40/40 31/31/31 30/30/30
f 39/39/39 40/40/40 30/30/30
f 41/41/41 32/32/32 31/31/31
f 40/40/40 41/41/41 31/31/31
f 42/42/42 33/33/33 32/32/32
f 41/41/41 42/42/42 32/32/32
f 43/43/43 34/34/34 33/33/33
f 42/42/42 43/43/43 33/33/33
f 44/44/44 35/35/35 34/34/34
f 43/43/43 44/44/44 34/34/34
f 45/45/45 36/36/36 35/35/35
f 44/44/44 45/45/45 35/35/35
f 46/46/46 37/37/37 36/36/36
f 45/45/45 46/46/46 36/36/36
f 47/47/47 38/38/38 37/37/37
f 46/46/46 47/47/47 37/37/37
f 47/47/47 2/20/20 38/38/38
f 48/48/48 39/39/39 1/3/3
f 49/49/49 40/40/40 39/39/39
f 48/48/48 49/49/49 39/39/39
f 50/50/50 41/41/41 40/40/40
f 49/49/49 50/50/50 40/40/40
f 51/51/51 42/42/42 41/41/41
f 50/50/50 51/51/51 41/41/41
f 52/52/52 43/43/43 42/42/42
f 51/51/51 52/52/52 42/42/42
f 53/53/53 44/44/44 43/43/43
f 52/52/52 53/53/53 43/43/43
f 54/54/54 45/45/45 44/44/44
f 53/53/53 54/54/54 44/44/44
f 55/55/55 46/46/46 45/45/45
f 54/54/54 55/55/55 45/45/45
f 56/56/56 47/47/47 46/46/46
f 55/55/55 56/56/56 46/46/46
f 56/56/56 2/20/20 47/47/47
f 57/57/57 48/48/48 1/3/3
f 58/58/58 49/49/49 48/48/48
f 57/57/57 58/58/58 48/48/48
f 59/59/59 50/50/50 49/49/49
f 58/58/58 59/59/59 49/49/49
f 60/60/60 51/51/51 50/50/50
f 59/59/59 60/60/60 50/50/50
f 61/61/61 52/52/52 51/51/51
f 60/60/60 61/61/61 51/51/51
f 62/62/62 53/53/53 52/52/52
f 61/61/61 62/62/62 52/52/52
f 63/63/63 54/54/54 53/53/53
f 62/62/62 63/63/63 53/53/53
f 64/64/64 55/55/55 54/54/54
f 63/63/63 64/64/64 54/54/54
f 65/65/65 56/56/56 55/55/55
f 64/64/64 65/65/65 55/55/55
f 65/65/65 2/20/20 56/56/56
f 66/66/66 57/57/57 1/3/3
f 67/67/67 58/58/58 57/57/57
f 66/66/66 67/67/67 57/57/57
f 68/68/68 59/59/59 58/58/58
f 67/67/67 68/68/68 58/58/58
f 69/69/69 60/60/60 59/59/59
f 68/68/68 69/69/69 59/59/59
f 70/70/70 61/61/61 60/60/60
f 69/69/69 70/70/70 60/60/60
f 71/71/71 62/62/62 61/61/61
f 70/70/70 71/71/71 61/61/61
f 72/72/72 63/63/63 62/62/62
f 71/71/71 72/72/72 62/62/62
f 73/73/73 64/64/64 63/63/63
f 72/72/72 73/73/73 63/63/63
f 74/74/74 65/65/65 64/64/64
f 73/73/73 74/74/74 64/64/64
f 74/74/74 2/20/20 65/65/65
f 75/75/75 66/66/66 1/3/3
f 76/76/76 67/67/67 66/66/66
f 75/75/75 76/76/76 66/66/66
f 77/77/77 68/68/68 67/67/67
f 76/76/76 77/77/77 67/67/67
f 78/78/78 69/69/69 68/68/68
f 77/77/77 78/78/78 68/68/68
f 79/79/79 70/70/70 69/69/69
f 78/78/78 79/79/79 69/69/69
f 80/80/80 71/71/71 70/70/70
f 79/79/79 80/80/80 70/70/70
f 81/81/81 72/72/72 71/71/71
f 80/80/80 81/81/81 71/71/71
f 82/82/82 73/73/73 72/72/72
f 81/81/81 82/82/82 72/72/72
f 83/83/83 74/74/74 73/73/73
f 82/82/82 83/83/83 73/73/73
f 83/83/83 2/20/20 74/74/74
f 84/84/84 75/75/75 1/3/3
f 85/85/85 76/76/76 75/75/75
f 84/84/84 85/85/85 75/75/75
f 86/86/86 77/77/77 76/76/76
f 85/85/85 86/86/86 76/76/76
f 87/87/87 78/78/78 77/77/77
f 86/86/86 87/87/87 77/77/77
f 88/88/88 79/79/79 78/78/78
f 87/87/87 88/88/88 78/78/78
f 89/89/89 80/80/80 79/79/79
f 88/88/88 89/89/89 79/79/79
f 90/90/90 81/81/81 80/80/80
f 89/89/89 90/90/90 80/80/80
f 91/91/91 82/82/82 81/81/81
f 90/90/90 91/91/91 81/81/81
f 92/92/92 83/83/83 82/82/82
f 91/91/91 92/92/92 82/82/82
f 92/92/92 2/20/20 83/83/83
f 93/93/93 84/84/84 1/3/3
f 94/94/94 85/85/85 84/84/84
f 93/93/93 94/94/94 84/84/84
f 95/95/95 86/86/86 85/85/85
f 94/94/94 95/95/95 85/85/85
f 96/96/96 87/87/87 86/86/86
f 95/95/95 96/96/96 86/86/86
f 97/97/97 88/88/88 87/87/87
f 96/96/96 97/97/97 87/87/87
f 98/98/98 89/89/89 88/88/88
f 97/97/97 98/98/98 88/88/88
f 99/99/99 90/90/90 89/89/89
f 98/98/98 99/99/99 89/89/89
f 100/100/100 91/91/91 90/90/90
f 99/99/99 100/100/100 90/90/90
f 101/101/101 92/92/92 91/91/91
f 100/100/100 101/101/101 91/91/91
f 101/101/101 2/20/20 92/92/92
f 102/102/102 93/93/93 1/3/3
f 103/103/103 94/94/94 93/93/93
f 102/102/102 103/103/103 93/93/93
f 104/104/104 95/95/95 94/94/94
f 103/103/103 104/104/104 94/94/94
f 105/105/105 96/96/96 95/95/95
f 104/104/104 105/105/105 95/95/95
f 106/106/106 97/97/97 96/96/96
f 105/105/105 106/106/106 96/96/96
f 107/107/107 98/98/98 97/97/97
f 106/106/106 107/107/107 97/97/97
f 108/108/108 99/99/99 98/98/98
f 107/107/107 108/108/108 98/98/98
f 109/109/109 100/100/100 99/99/99
f 108/108/108 109/109/109 99/99/99
f 110/110/110 101/101/101 100/100/100
f 109/109/109 110/110/110 100/100/100
f 110/110/110 2/20/20 101/101/101
f 111/111/111 102/102/102 1/3/3
f 112/112/112 103/103/103 102/102/102
f 111/111/111 112/112/112 102/102/102
f 113/113/113 104/104/104 103/103/103
f 112/112/112 113/113/113 103/103/103
f 114/114/114 105/105/105 104/104/104
f 113/113/113 114/114/114 104/104/104
f 115/115/115 106/106/106 105/105/105
f 114/114/114 115/115/115 105/105/105
f 116/116/116 107/107/107 106/106/106
f 115/115/115 116/116/116 106/106/106
f 117/117/117 108/108/108 107/107/107
f 116/116/116 117/117/117 107/107/107
f 118/118/118 109/109/109 108/108/108
f 117/117/117 118/118/118 108/108/108
f 119/119/119 110/110/110 109/109/109
f 118/118/118 119/119/119 109/109/109
f 119/119/119 2/20/20 110/110/110
f 120/120/120 111/111/111 1/3/3
f 121/121/121 112/112/112 111/111/111
f 120/120/120 121/121/121 111/111/111
f 122/122/122 113/113/113 112/112/112
f 121/121/121 122/122/122 112/112/112
f 123/123/123 114/114/114 113/113/113
f 122/122/122 123/123/123 113/113/113
f 124/124/124 115/115/115 114/114/114
f 123/123/123 124/124/124 114/114/114
f 125/125/125 116/116/116 115/115/115
f 124/124/124 125/125/125 115/115/115
f 126/126/126 117/117/117 116/116/116
f 125/125/125 126/126/126 116/116/116
f 127/127/127 118/118/118 117/117/117
f 126/126/126 127/127/127 117/117/117
f 128/128/128 119/119/119 118/118/118
f 127/127/127 128/128/128 118/118/118
f 128/128/128 2/20/20 119/119/119
f 3/2/2 120/120/120 1/3/3
f 4/5/5 121/121/121 120/120/120
f 3/2/2 4/5/5 120/120/120
f 5/7/7 122/122/122 121/121/121
f 4/5/5 5/7/7 121/121/121
f 6/9/9 123/123/123 122/122/122
f 5/7/7 6/9/9 122/122/122
f 7/11/11 124/124/124 123/123/123
f 6/9/9 7/11/11 123/123/123
f 8/13/13 125/125/125 124/124/124
f 7/11/11 8/13/13 124/124/124
f 9/15/15 126/126/126 125/125/125
f 8/13/13 9/15/15 125/125/125
f 10/17/17 127/127/127 126/126/126
f 9/15/15 10/17/17 126/126/126
f 11/19/19 128/128/128 127/127/127
f 10/17/17 11/19/19 127/127/127
f 11/19/19 2/20/20 128/128/128
